<?xml version="1.0" encoding="UTF-8"?>
<!DOCTYPE svg PUBLIC "-//W3C//DTD SVG 1.1//EN" "http://www.w3.org/Graphics/SVG/1.1/DTD/svg11.dtd">
<!-- Creator: CorelDRAW X7 -->
<svg xmlns="http://www.w3.org/2000/svg" xml:space="preserve" width="1275px" height="1275px" version="1.1" style="shape-rendering:geometricPrecision; text-rendering:geometricPrecision; image-rendering:optimizeQuality; fill-rule:evenodd; clip-rule:evenodd"
viewBox="0 0 1275 1275"
 xmlns:xlink="http://www.w3.org/1999/xlink">
 <defs>
  <style type="text/css">
   <![CDATA[
    .fil0 {fill:#242222}
    .fil3 {fill:#B6462B}
    .fil4 {fill:#C85C2A}
    .fil1 {fill:#D57026}
    .fil2 {fill:#EC9D11}
   ]]>
  </style>
 </defs>
 <g id="Layer_x0020_1">
  <metadata id="CorelCorpID_0Corel-Layer"/>
  <g id="_2646821226208">
   <path class="fil0" d="M1240 638c0,331 -269,600 -600,600 -331,0 -600,-269 -600,-600 0,-331 269,-600 600,-600 331,0 600,269 600,600z"/>
   <path class="fil1" d="M1220 633c0,313 -260,567 -581,567 -321,0 -581,-254 -581,-567 0,-313 260,-567 581,-567 321,0 581,254 581,567z"/>
   <path class="fil2" d="M100 661c-4,-103 12,-241 92,-358 20,-18 43,-30 69,-35 0,0 0,0 0,0 -70,78 -126,188 -142,342 -5,12 -9,23 -13,35 -2,7 -4,12 -6,16l1 0zm197 -451c-8,0 -8,-5 -2,-15 40,-30 89,-57 147,-78 5,2 9,5 15,9 -40,18 -83,43 -125,75 -8,1 -16,3 -23,6 -5,2 -9,2 -12,2l1 0zm190 -97c-2,-4 -2,-7 -2,-9 0,0 0,0 0,0 43,-12 90,-22 142,-28 -16,2 -71,10 -141,37zm141 -37c3,0 5,-1 5,-1 -2,0 -3,0 -5,1z"/>
   <path class="fil0" d="M1026 397c-56,-36 -125,-54 -187,-75 -42,-13 -85,-29 -122,-54 -12,-8 -22,-17 -29,-26 41,-8 82,-12 124,-13 108,-2 238,12 320,92 4,4 9,-3 7,-7 -21,-39 -71,-56 -109,-75 -58,-29 -124,-29 -188,-30 -57,-1 -112,5 -166,16 -26,-54 7,-120 54,-158 1,-1 0,-2 -1,-2 -47,26 -75,68 -86,121 -3,16 -2,30 4,43 -19,4 -36,9 -55,14 -40,-57 -87,-99 -148,-148l-2 1c-1,2 -2,3 -3,5l1 2c15,-12 116,120 134,147 -38,12 -75,26 -113,42 -5,2 -12,5 -17,9 -14,-43 -47,-82 -95,-83 -57,-2 -153,23 -183,76 -1,2 2,2 2,2 23,-26 79,-42 109,-48 75,-16 115,22 126,75 -88,50 -158,121 -216,206 -34,50 -59,105 -80,161 -16,44 -11,85 -20,128 -1,2 2,2 2,0 14,-41 12,-82 29,-123 22,-54 51,-106 83,-154 54,-81 123,-142 204,-190 1,24 -4,50 -13,75 -33,89 -85,174 -123,261 -33,75 -50,151 -48,233 1,33 3,82 19,111 14,26 37,44 53,70 2,3 6,-1 5,-4 -6,-14 -16,-26 -24,-38 -27,-38 -36,-66 -40,-115 -6,-82 9,-153 39,-228 47,-115 133,-211 172,-331 5,-18 7,-38 4,-58 6,-3 12,-6 18,-9 38,-19 77,-34 117,-47 49,86 83,180 106,276 50,210 113,418 85,638 0,2 2,2 3,0 40,-195 -1,-404 -54,-593 -26,-96 -50,-188 -94,-278 -9,-18 -18,-34 -27,-49 18,-5 35,-10 53,-14 19,29 54,51 82,66 80,42 175,48 258,83 113,47 201,182 210,302 0,5 6,2 6,-2 1,-123 -86,-237 -187,-301l2 0z"/>
   <path class="fil3" d="M640 1199c-129,0 -248,-41 -344,-110 -6,-12 -14,-22 -22,-33 -27,-38 -36,-66 -40,-115 -6,-82 9,-153 39,-228 47,-115 133,-211 172,-331 5,-18 7,-38 4,-58 6,-3 12,-6 18,-9 38,-19 77,-34 117,-47 49,86 83,180 106,276 50,210 113,418 85,638 0,0 0,1 0,1 -43,10 -88,16 -135,16l0 1zm-97 -890c-35,0 -72,23 -77,57 -19,134 -71,152 -127,266 -55,114 -141,390 159,490 43,14 79,21 109,21 180,0 146,-227 123,-349 -27,-143 -103,-385 -129,-448 -11,-26 -34,-37 -58,-37l-1 0zm235 874c40,-195 -2,-404 -54,-592 -26,-96 -50,-188 -94,-278 -9,-18 -18,-34 -27,-49 18,-5 35,-10 53,-14 19,29 54,51 82,66 80,42 175,48 258,83 113,47 201,182 210,302 0,2 2,2 2,2 2,0 4,-2 4,-4 1,-123 -86,-237 -187,-301 -56,-36 -125,-54 -187,-75 -42,-13 -85,-30 -122,-54 -12,-8 -22,-17 -29,-26 41,-8 82,-12 124,-13 7,0 15,0 22,0 96,0 206,15 283,78 66,92 104,203 104,324 0,266 -189,490 -442,550l2 -1zm-110 -890c-14,0 -8,36 23,106 63,142 132,550 133,633 0,25 21,37 52,37 75,0 213,-72 276,-224 88,-215 -118,-405 -242,-440 -124,-35 -180,-61 -218,-97 -10,-9 -18,-14 -23,-14zm154 -53c-2,0 -5,0 -7,0 -87,2 -85,26 17,54 102,29 292,117 340,218 9,19 15,27 19,27 16,0 -17,-151 -74,-216 -46,-53 -194,-85 -295,-85l0 1zm-546 834c-85,-67 -151,-156 -186,-259 9,-25 11,-50 16,-75 6,45 13,73 13,73l0 0c-4,-36 -5,-71 -6,-105 2,-5 3,-9 5,-15 22,-54 51,-106 83,-154 54,-81 123,-142 204,-190 1,24 -4,50 -13,75 -33,89 -85,174 -123,261 -33,75 -50,151 -48,233 1,33 3,82 19,111 9,17 23,31 35,46l2 0zm92 -683c-1,0 -2,0 -2,0 -36,5 -154,111 -207,242 -74,181 3,316 33,316 8,0 13,-9 11,-29 -9,-97 36,-236 79,-315 42,-78 116,-213 85,-213l1 0zm-281 418c-19,-56 -29,-116 -29,-178 0,-133 47,-255 125,-351 11,-7 23,-13 36,-18 -11,12 -21,26 -30,39 -36,32 -64,82 -86,139 -32,84 -33,232 -16,232 3,0 6,-4 10,-13 1,16 2,32 3,47 -9,35 -7,69 -13,103zm25 -137c1,-23 2,-43 5,-64 43,-102 142,-226 203,-262 60,-36 23,-82 -38,-82 -7,0 -15,1 -23,2 6,-7 13,-14 19,-21 11,-2 21,-3 30,-3 54,0 84,33 93,78 -88,50 -158,121 -216,206 -30,45 -54,95 -74,145l0 -1zm330 -373c-14,-43 -47,-82 -95,-83 -2,0 -4,0 -6,0 -11,0 -23,1 -35,2 8,-7 16,-13 23,-19 5,-1 9,-1 12,-1 31,0 55,17 85,40 18,14 40,21 61,21 33,0 58,-19 40,-50 -20,-35 -50,-68 -73,-85 4,-2 8,-4 12,-5 36,36 92,109 106,130 -38,12 -75,26 -113,42 -5,2 -12,5 -17,9l1 0zm638 -36c-17,-9 -36,-17 -52,-26 -58,-29 -124,-29 -188,-30 -2,0 -5,0 -7,0 -54,0 -107,5 -159,16 -24,-52 5,-115 48,-153 143,20 269,91 358,193zm-316 -170c-51,0 -82,27 -86,88 -1,14 9,19 26,19 27,0 71,-9 124,-10 2,0 3,0 5,0 28,0 50,2 68,5 18,2 31,5 42,5 11,0 18,-2 23,-10 18,-23 -117,-87 -181,-95 -8,-1 -16,-2 -23,-2l1 -1zm-557 158c62,-68 140,-120 229,-152 0,0 0,0 0,0l1 2c1,-1 2,-1 2,-1 4,0 9,4 17,10 -5,2 -12,4 -17,6 -3,-2 -6,-2 -9,-2 -1,0 -2,0 -3,0 -70,16 -120,57 -134,79 -17,12 -33,26 -47,40 -14,5 -27,11 -39,18l0 1zm383 -9c-33,-49 -72,-85 -120,-125 5,-2 10,-5 16,-6 12,24 72,64 88,89 8,12 19,19 29,19 15,0 26,-16 23,-55 -6,-68 63,-82 18,-89 -9,-2 -19,-2 -30,-2 -51,0 -126,12 -130,29 -9,2 -16,5 -24,8 -5,-4 -10,-9 -16,-12 61,-21 126,-33 194,-33 27,0 54,2 80,5 -42,26 -66,66 -77,116 -3,16 -2,30 4,43 -19,4 -36,9 -55,14l1 -1z"/>
   <path class="fil4" d="M119 813c0,0 -8,-28 -13,-73 2,-11 4,-21 8,-32 0,33 2,68 6,105l-1 0zm-17 -106c-2,-15 -2,-30 -3,-47 2,-5 4,-10 6,-16 3,-11 8,-23 13,-35 -2,20 -4,42 -5,64 -2,5 -4,11 -6,16 -2,6 -4,12 -5,17l0 1zm89 -404c9,-13 19,-26 30,-39 21,-8 42,-13 57,-16 1,0 2,0 2,-1 -7,7 -13,14 -19,21 0,0 0,0 0,0 -26,5 -49,17 -69,35l-1 0zm57 -68c14,-14 30,-27 47,-40 -5,9 -5,15 2,15 3,0 6,-1 12,-2 9,-3 16,-5 23,-6 -8,6 -16,12 -23,19 -19,3 -40,8 -61,15l0 -1zm208 -109c-5,-4 -10,-7 -15,-9 5,-2 11,-4 17,-6 3,2 6,5 10,9 -4,2 -8,3 -12,5l-1 0zm16 -7c-3,-3 -7,-5 -10,-9 8,-2 16,-5 24,-8 0,0 0,0 0,0 -1,3 0,6 2,9 -5,2 -10,4 -16,6l0 1z"/>
   <path class="fil0" d="M775 1184l0 0c0,0 0,-1 0,-1 29,-220 -34,-427 -85,-638 -23,-95 -57,-189 -106,-276 -40,12 -79,28 -117,47 -6,3 -12,6 -18,9 3,20 2,40 -4,58 -38,119 -124,215 -172,331 -31,75 -46,147 -39,228 4,49 12,77 40,115 8,11 16,21 22,33l0 0c-7,-5 -13,-9 -19,-15l0 0c-12,-15 -26,-29 -35,-46 -16,-29 -18,-78 -19,-111 -3,-82 16,-158 48,-233 38,-88 90,-172 123,-261 9,-25 13,-50 13,-75 -81,48 -151,109 -204,190 -32,48 -61,100 -83,154 -2,5 -4,9 -5,15 -3,11 -5,21 -8,32 -5,26 -7,50 -16,75l0 0c-1,-2 -2,-4 -2,-5l0 0c6,-34 4,-68 13,-103 2,-5 3,-12 5,-17 2,-5 4,-11 6,-16 19,-50 43,-99 74,-145 57,-85 129,-155 216,-206 -9,-44 -39,-78 -93,-78 -9,0 -19,1 -30,3 -1,0 -2,0 -2,1 -15,3 -36,9 -57,16 -13,5 -26,11 -36,18 8,-9 16,-19 24,-28 12,-7 26,-13 39,-18 20,-7 41,-12 61,-15 12,-2 24,-2 35,-2 2,0 4,0 6,0 47,2 81,39 95,83 5,-3 11,-5 17,-9 37,-16 75,-30 113,-42 -14,-20 -70,-94 -106,-130 -3,-3 -7,-6 -10,-9 -7,-6 -13,-10 -17,-10 -1,0 -2,0 -2,1l-1 -2c0,0 0,0 0,0 2,-1 5,-2 8,-3 5,4 10,9 16,12 4,3 7,5 10,9 48,40 87,77 120,125 19,-5 36,-10 55,-14 -5,-13 -7,-28 -4,-43 11,-50 35,-89 77,-116 2,0 3,1 5,1 -44,38 -73,101 -48,153 52,-10 105,-16 159,-16 2,0 5,0 7,0 64,1 130,0 188,30 16,9 34,16 52,26 12,14 23,28 34,43 -76,-64 -186,-78 -283,-78 -8,0 -15,0 -22,0 -42,1 -83,5 -124,13 8,9 17,19 29,26 37,24 80,40 122,54 62,20 131,39 187,75 101,64 188,178 187,301 0,2 -2,4 -4,4 -2,0 -2,-1 -2,-2 -9,-119 -97,-254 -210,-302 -83,-35 -178,-41 -258,-83 -27,-14 -61,-36 -82,-66 -18,4 -36,9 -53,14 9,15 19,31 27,49 43,90 68,182 94,278 52,188 93,398 54,592l0 0c-1,0 -2,1 -3,1l-2 0z"/>
  </g>
 </g>
</svg>
