<?xml version="1.0" encoding="UTF-8"?>
<!DOCTYPE svg PUBLIC "-//W3C//DTD SVG 1.1//EN" "http://www.w3.org/Graphics/SVG/1.1/DTD/svg11.dtd">
<!-- Creator: CorelDRAW X7 -->
<svg xmlns="http://www.w3.org/2000/svg" xml:space="preserve" width="8.5in" height="11in" version="1.1" style="shape-rendering:geometricPrecision; text-rendering:geometricPrecision; image-rendering:optimizeQuality; fill-rule:evenodd; clip-rule:evenodd"
viewBox="0 0 8500 11000"
 xmlns:xlink="http://www.w3.org/1999/xlink">
 <defs>
  <style type="text/css">
   <![CDATA[
    .fil2 {fill:#EC9D11}
    .fil1 {fill:#D57026}
    .fil4 {fill:#C85C2A}
    .fil3 {fill:#B6462B}
    .fil0 {fill:#242222}
   ]]>
  </style>
 </defs>
 <g id="Layer_x0020_1">
  <metadata id="CorelCorpID_0Corel-Layer"/>
  <g id="_2646821226208">
   <path class="fil0" d="M4573 4704c0,427 -346,773 -773,773 -427,0 -773,-346 -773,-773 0,-427 346,-773 773,-773 427,0 773,346 773,773z"/>
   <path class="fil1" d="M4548 4697c0,403 -335,730 -748,730 -413,0 -748,-327 -748,-730 0,-403 335,-730 748,-730 413,0 748,327 748,730z"/>
   <path class="fil2" d="M3104 4733c-5,-133 15,-310 118,-461 26,-23 56,-39 89,-45 0,0 0,0 0,0 -90,101 -162,242 -183,440 -7,15 -12,30 -17,45 -3,9 -5,16 -8,21zm254 -581c-10,0 -10,-7 -3,-19 52,-39 115,-73 189,-100 6,2 12,6 19,11 -52,23 -107,55 -161,97 -10,1 -20,4 -30,8 -6,2 -11,3 -15,3zm245 -125c-2,-5 -3,-9 -2,-12 0,0 0,0 0,0 55,-16 116,-28 183,-36 -20,3 -92,13 -181,48zm181 -48c4,0 6,-1 6,-1 -2,0 -4,0 -6,1z"/>
   <path class="fil0" d="M4297 4394c-72,-46 -161,-70 -241,-96 -54,-17 -110,-38 -157,-69 -16,-10 -28,-22 -37,-34 53,-10 106,-15 160,-17 139,-3 306,15 412,118 5,5 12,-4 9,-9 -27,-50 -91,-72 -140,-97 -75,-38 -160,-38 -242,-39 -73,-1 -144,6 -214,20 -33,-69 9,-155 70,-203 1,-1 0,-3 -1,-2 -61,34 -96,88 -111,156 -4,20 -2,39 5,56 -24,5 -47,12 -71,18 -51,-74 -112,-127 -191,-191l-3 1c-1,2 -3,4 -4,6l1 2c19,-15 149,154 173,190 -49,15 -97,33 -145,54 -7,3 -15,7 -22,11 -18,-56 -61,-105 -122,-107 -73,-2 -197,29 -236,98 -1,2 2,3 3,2 29,-33 102,-54 141,-62 97,-20 148,28 162,96 -113,65 -204,156 -278,266 -44,65 -76,135 -103,208 -21,57 -14,110 -26,165 -1,2 3,2 3,0 18,-53 15,-105 37,-159 28,-70 66,-136 107,-198 69,-104 159,-183 263,-245 1,31 -5,64 -17,96 -43,115 -110,224 -159,336 -42,97 -65,194 -62,300 1,42 4,106 25,143 18,33 48,57 68,90 2,4 8,-1 6,-5 -8,-18 -20,-33 -31,-49 -35,-49 -46,-85 -51,-148 -8,-105 11,-197 50,-294 61,-148 171,-272 221,-426 7,-23 9,-49 5,-75 8,-4 15,-8 23,-12 49,-24 99,-44 151,-60 63,111 107,232 137,355 65,271 146,539 109,822 0,3 3,3 4,0 51,-251 -1,-521 -69,-764 -34,-124 -65,-242 -121,-358 -11,-23 -23,-44 -35,-63 23,-7 45,-13 68,-18 25,37 70,66 105,85 103,54 225,62 332,107 146,61 259,235 270,389 0,6 8,3 8,-2 1,-159 -111,-305 -241,-388z"/>
   <path class="fil3" d="M3800 5427c-166,0 -319,-53 -443,-142 -8,-15 -18,-28 -28,-42 -35,-49 -46,-85 -51,-148 -8,-105 11,-197 50,-294 61,-148 171,-272 221,-426 7,-23 9,-49 5,-75 8,-4 15,-8 23,-12 49,-24 99,-44 151,-60 63,111 107,232 137,355 65,271 146,539 109,822 0,0 0,1 0,1 -56,13 -114,20 -174,20zm-125 -1147c-45,0 -93,29 -99,74 -24,173 -92,196 -163,343 -71,147 -182,503 205,631 56,18 102,27 141,27 232,0 188,-292 158,-450 -35,-184 -133,-496 -166,-577 -14,-33 -44,-48 -75,-48zm303 1126c51,-251 -2,-521 -69,-763 -34,-124 -65,-242 -121,-358 -11,-23 -23,-44 -35,-63 23,-7 45,-13 68,-18 25,37 70,66 105,85 103,54 225,62 332,107 146,61 259,235 270,389 0,2 2,3 3,3 2,0 5,-2 5,-5 1,-159 -111,-305 -241,-388 -72,-46 -161,-70 -241,-96 -54,-17 -110,-38 -157,-69 -16,-10 -28,-22 -37,-34 53,-10 106,-15 160,-17 9,0 19,0 28,0 124,0 265,19 364,101 85,118 134,262 134,418 0,343 -243,631 -570,709zm-142 -1147c-18,0 -10,47 29,136 81,183 170,708 171,815 0,32 27,48 67,48 97,0 274,-93 355,-289 114,-277 -152,-522 -312,-567 -160,-45 -232,-78 -281,-125 -13,-12 -23,-18 -29,-18zm199 -68c-3,0 -6,0 -9,0 -112,2 -110,34 22,70 132,37 376,151 438,281 12,24 19,35 24,35 20,0 -22,-195 -95,-278 -59,-68 -250,-109 -380,-109zm-703 1075c-110,-86 -194,-201 -240,-334 11,-32 14,-65 20,-97 8,58 17,94 17,94l0 0c-5,-47 -7,-92 -8,-135 2,-6 4,-12 7,-19 28,-70 66,-136 107,-198 69,-104 159,-183 263,-245 1,31 -5,64 -17,96 -43,115 -110,224 -159,336 -42,97 -65,194 -62,300 1,42 4,106 25,143 12,22 29,40 45,59zm119 -880c-1,0 -2,0 -3,0 -46,7 -198,143 -267,312 -95,233 4,407 43,407 10,0 17,-12 14,-38 -12,-125 47,-304 102,-406 54,-101 150,-275 110,-275zm-362 539c-24,-72 -37,-149 -37,-229 0,-171 60,-328 161,-452 14,-9 30,-17 47,-23 -14,16 -27,33 -39,50 -47,41 -83,105 -111,179 -41,108 -43,299 -21,299 4,0 8,-5 13,-17 1,21 2,41 4,60 -12,45 -9,89 -17,133zm32 -176c1,-29 3,-56 6,-82 56,-131 183,-291 261,-337 77,-46 29,-106 -49,-106 -9,0 -19,1 -29,3 8,-9 17,-18 25,-27 14,-3 27,-4 39,-4 70,0 108,43 120,101 -113,65 -204,156 -278,266 -39,58 -70,122 -95,187zm425 -480c-18,-56 -61,-105 -122,-107 -3,0 -5,0 -8,0 -14,0 -29,1 -45,3 10,-9 20,-17 30,-25 6,-1 11,-1 16,-1 40,0 71,22 109,52 23,18 52,27 78,27 43,0 75,-24 51,-64 -26,-45 -64,-88 -94,-110 5,-2 10,-5 15,-7 46,46 118,140 136,167 -49,15 -97,33 -145,54 -7,3 -15,7 -22,11zm822 -46c-22,-12 -46,-22 -67,-33 -75,-38 -160,-38 -242,-39 -3,0 -6,0 -9,0 -70,0 -138,7 -205,20 -31,-67 6,-148 62,-197 184,26 346,117 461,249zm-407 -219c-66,0 -105,35 -111,114 -1,18 11,24 34,24 35,0 92,-12 160,-13 2,0 4,0 6,0 36,0 65,3 88,7 23,3 40,7 54,7 14,0 23,-3 30,-13 23,-30 -151,-112 -233,-123 -10,-1 -20,-2 -29,-2zm-718 204c80,-87 181,-155 295,-196 0,0 0,0 0,0l1 2c1,-1 2,-1 3,-1 5,0 12,5 22,13 -7,2 -15,5 -22,8 -4,-2 -8,-3 -12,-3 -1,0 -3,0 -4,0 -90,21 -155,74 -173,102 -22,16 -42,33 -60,51 -18,6 -35,14 -50,23zm494 -11c-43,-63 -93,-110 -155,-161 7,-3 13,-6 20,-8 15,31 93,82 114,115 10,15 24,25 37,25 19,0 34,-20 30,-71 -8,-87 81,-106 23,-115 -11,-2 -24,-3 -39,-3 -66,0 -162,16 -168,37 -11,3 -21,6 -31,10 -6,-5 -13,-11 -20,-16 78,-27 162,-42 250,-42 35,0 69,2 103,7 -54,34 -85,85 -99,149 -4,20 -2,39 5,56 -24,5 -47,12 -71,18z"/>
   <path class="fil4" d="M3129 4929c0,0 -10,-36 -17,-94 2,-14 5,-27 10,-41 0,43 3,88 8,135zm-22 -136c-2,-19 -3,-39 -4,-60 2,-6 5,-13 8,-21 4,-14 10,-29 17,-45 -3,26 -5,54 -6,82 -3,7 -5,14 -8,21 -3,8 -5,15 -7,22zm115 -521c12,-17 25,-34 39,-50 27,-10 54,-17 73,-21 1,0 2,0 3,-1 -9,9 -17,18 -25,27 0,0 0,0 0,0 -33,6 -63,22 -89,45zm73 -87c18,-18 38,-35 60,-51 -7,11 -6,19 3,19 4,0 8,-1 15,-3 11,-4 21,-6 30,-8 -10,8 -20,16 -30,25 -25,4 -52,10 -78,19zm268 -141c-7,-5 -13,-9 -19,-11 7,-3 14,-5 22,-8 4,3 8,7 13,12 -5,2 -10,4 -15,7zm20 -9c-4,-4 -9,-7 -13,-11 10,-3 21,-6 31,-10 0,0 0,0 0,0 -1,4 0,8 2,12 -7,3 -13,5 -20,8z"/>
   <path class="fil0" d="M3974 5407l0 0c0,0 0,-1 0,-1 37,-283 -44,-550 -109,-822 -30,-123 -74,-244 -137,-355 -52,16 -102,36 -151,60 -8,4 -15,8 -23,12 4,26 3,52 -5,75 -49,153 -160,277 -221,426 -40,97 -59,189 -50,294 5,63 16,99 51,148 10,14 20,27 28,42l0 0c-9,-6 -17,-12 -25,-19l0 0c-16,-19 -33,-37 -45,-59 -21,-38 -23,-101 -25,-143 -4,-106 20,-203 62,-300 49,-113 116,-221 159,-336 12,-32 17,-65 17,-96 -104,62 -195,141 -263,245 -41,62 -79,129 -107,198 -3,6 -5,12 -7,19 -4,14 -7,27 -10,41 -6,33 -9,65 -20,97l0 0c-1,-2 -2,-5 -2,-7l0 0c8,-44 5,-87 17,-133 2,-7 4,-15 7,-22 3,-7 5,-14 8,-21 25,-65 56,-128 95,-187 74,-109 166,-200 278,-266 -12,-57 -50,-101 -120,-101 -12,0 -25,1 -39,4 -1,0 -2,0 -3,1 -19,4 -47,11 -73,21 -17,6 -34,14 -47,23 10,-12 20,-24 31,-36 15,-9 33,-17 50,-23 26,-9 53,-16 78,-19 16,-2 31,-3 45,-3 3,0 5,0 8,0 61,2 104,50 122,107 7,-4 14,-7 22,-11 48,-21 96,-39 145,-54 -18,-26 -90,-121 -136,-167 -4,-4 -9,-8 -13,-12 -9,-8 -17,-13 -22,-13 -1,0 -2,0 -3,1l-1 -2c0,0 0,0 0,0 3,-1 7,-2 10,-4 7,5 13,11 20,16 5,4 9,7 13,11 62,51 112,99 155,161 24,-7 47,-13 71,-18 -7,-17 -9,-36 -5,-56 14,-64 45,-115 99,-149 2,0 4,1 6,1 -57,49 -94,130 -62,197 67,-13 135,-20 205,-20 3,0 6,0 9,0 82,1 167,0 242,39 21,11 44,21 67,33 16,18 30,36 44,56 -98,-82 -240,-101 -364,-101 -10,0 -19,0 -28,0 -54,1 -107,7 -160,17 10,12 22,24 37,34 48,31 103,52 157,69 80,26 169,50 241,96 130,83 242,229 241,388 0,3 -3,5 -5,5 -2,0 -3,-1 -3,-3 -12,-153 -125,-327 -270,-389 -107,-45 -229,-53 -332,-107 -35,-18 -79,-47 -105,-85 -23,5 -46,11 -68,18 12,19 24,40 35,63 56,116 87,234 121,358 67,242 120,513 69,763l0 0c-1,0 -3,1 -4,1z"/>
  </g>
 </g>
</svg>
