<?xml version="1.0" encoding="UTF-8"?>
<!DOCTYPE svg PUBLIC "-//W3C//DTD SVG 1.1//EN" "http://www.w3.org/Graphics/SVG/1.1/DTD/svg11.dtd">
<!-- Creator: CorelDRAW X7 -->
<svg xmlns="http://www.w3.org/2000/svg" xml:space="preserve" width="2400px" height="2400px" version="1.1" style="shape-rendering:geometricPrecision; text-rendering:geometricPrecision; image-rendering:optimizeQuality; fill-rule:evenodd; clip-rule:evenodd"
viewBox="0 0 2400 2400"
 xmlns:xlink="http://www.w3.org/1999/xlink">
 <defs>
  <style type="text/css">
   <![CDATA[
    .fil3 {fill:white}
    .fil22 {fill:url(#id0)}
    .fil26 {fill:url(#id1)}
    .fil16 {fill:url(#id2)}
    .fil19 {fill:url(#id3)}
    .fil23 {fill:url(#id4)}
    .fil12 {fill:url(#id5)}
    .fil30 {fill:url(#id6)}
    .fil6 {fill:url(#id7)}
    .fil11 {fill:url(#id8)}
    .fil18 {fill:url(#id9)}
    .fil25 {fill:url(#id10)}
    .fil36 {fill:url(#id11)}
    .fil2 {fill:url(#id12)}
    .fil38 {fill:url(#id13)}
    .fil5 {fill:url(#id14)}
    .fil31 {fill:url(#id15)}
    .fil34 {fill:url(#id16)}
    .fil29 {fill:url(#id17)}
    .fil41 {fill:url(#id18)}
    .fil8 {fill:url(#id19)}
    .fil20 {fill:url(#id20)}
    .fil14 {fill:url(#id21)}
    .fil13 {fill:url(#id22)}
    .fil33 {fill:url(#id23)}
    .fil10 {fill:url(#id24)}
    .fil1 {fill:url(#id25)}
    .fil28 {fill:url(#id26)}
    .fil42 {fill:url(#id27)}
    .fil17 {fill:url(#id28)}
    .fil15 {fill:url(#id29)}
    .fil37 {fill:url(#id30)}
    .fil9 {fill:url(#id31)}
    .fil24 {fill:url(#id32)}
    .fil32 {fill:url(#id33)}
    .fil7 {fill:url(#id34)}
    .fil35 {fill:url(#id35)}
    .fil4 {fill:url(#id36)}
    .fil27 {fill:url(#id37)}
    .fil21 {fill:url(#id38)}
    .fil40 {fill:url(#id39)}
    .fil0 {fill:url(#id40)}
    .fil39 {fill:url(#id41)}
   ]]>
  </style>
  <linearGradient id="id0" gradientUnits="userSpaceOnUse" x1="1244" y1="594" x2="927" y2="783">
   <stop offset="0" style="stop-opacity:1; stop-color:#E55C01"/>
   <stop offset="1" style="stop-opacity:1; stop-color:#F7931E"/>
  </linearGradient>
  <linearGradient id="id1" gradientUnits="userSpaceOnUse" x1="646" y1="1022" x2="1049" y2="1022">
   <stop offset="0" style="stop-opacity:1; stop-color:#F97F48"/>
   <stop offset="1" style="stop-opacity:1; stop-color:#FFE15F"/>
  </linearGradient>
  <linearGradient id="id2" gradientUnits="userSpaceOnUse" x1="1357" y1="1914" x2="1522" y2="1801">
   <stop offset="0" style="stop-opacity:1; stop-color:#A02D12"/>
   <stop offset="1" style="stop-opacity:1; stop-color:#B53B01"/>
  </linearGradient>
  <linearGradient id="id3" gradientUnits="userSpaceOnUse" x1="911" y1="688" x2="1263" y2="688">
   <stop offset="0" style="stop-opacity:1; stop-color:#E55C01"/>
   <stop offset="1" style="stop-opacity:1; stop-color:#B53B01"/>
  </linearGradient>
  <linearGradient id="id4" gradientUnits="userSpaceOnUse" xlink:href="#id3" x1="1425" y1="626" x2="1427" y2="408">
  </linearGradient>
  <linearGradient id="id5" gradientUnits="userSpaceOnUse" x1="1087" y1="1562" x2="1389" y2="1562">
   <stop offset="0" style="stop-opacity:1; stop-color:#1B1464"/>
   <stop offset="1" style="stop-opacity:1; stop-color:#5C22CE"/>
  </linearGradient>
  <linearGradient id="id6" gradientUnits="userSpaceOnUse" xlink:href="#id5" x1="1632" y1="695" x2="1802" y2="695">
  </linearGradient>
  <linearGradient id="id7" gradientUnits="userSpaceOnUse" x1="1022" y1="395" x2="1091" y2="395">
   <stop offset="0" style="stop-opacity:1; stop-color:#4F55D3"/>
   <stop offset="1" style="stop-opacity:1; stop-color:#5C22CE"/>
  </linearGradient>
  <linearGradient id="id8" gradientUnits="userSpaceOnUse" xlink:href="#id5" x1="1632" y1="1890" x2="1634" y2="1890">
  </linearGradient>
  <linearGradient id="id9" gradientUnits="userSpaceOnUse" x1="1409" y1="1751" x2="1495" y2="1028">
   <stop offset="0" style="stop-opacity:1; stop-color:#38A9DC"/>
   <stop offset="1" style="stop-opacity:1; stop-color:#5C22CE"/>
  </linearGradient>
  <linearGradient id="id10" gradientUnits="userSpaceOnUse" x1="980" y1="790" x2="767" y2="1162">
   <stop offset="0" style="stop-opacity:1; stop-color:#F15A24"/>
   <stop offset="1" style="stop-opacity:1; stop-color:#C1451F"/>
  </linearGradient>
  <linearGradient id="id11" gradientUnits="userSpaceOnUse" xlink:href="#id9" x1="1244" y1="1683" x2="1469" y2="1365">
  </linearGradient>
  <linearGradient id="id12" gradientUnits="userSpaceOnUse" xlink:href="#id1" x1="730" y1="1509" x2="1625" y2="426">
  </linearGradient>
  <linearGradient id="id13" gradientUnits="userSpaceOnUse" xlink:href="#id3" x1="1548" y1="390" x2="1232" y2="185">
  </linearGradient>
  <linearGradient id="id14" gradientUnits="userSpaceOnUse" xlink:href="#id9" x1="938" y1="322" x2="1211" y2="322">
  </linearGradient>
  <linearGradient id="id15" gradientUnits="userSpaceOnUse" x1="1574" y1="572" x2="1810" y2="572">
   <stop offset="0" style="stop-opacity:1; stop-color:#F15A24"/>
   <stop offset="1" style="stop-opacity:1; stop-color:#EDB32E"/>
  </linearGradient>
  <linearGradient id="id16" gradientUnits="userSpaceOnUse" xlink:href="#id0" x1="1307" y1="550" x2="1572" y2="375">
  </linearGradient>
  <linearGradient id="id17" gradientUnits="userSpaceOnUse" x1="1863" y1="1123" x2="1750" y2="781">
   <stop offset="0" style="stop-opacity:1; stop-color:white"/>
   <stop offset="1" style="stop-opacity:1; stop-color:#60B0FF"/>
  </linearGradient>
  <linearGradient id="id18" gradientUnits="userSpaceOnUse" xlink:href="#id9" x1="1198" y1="1346" x2="1096" y2="870">
  </linearGradient>
  <linearGradient id="id19" gradientUnits="userSpaceOnUse" xlink:href="#id5" x1="1007" y1="379" x2="1136" y2="379">
  </linearGradient>
  <linearGradient id="id20" gradientUnits="userSpaceOnUse" xlink:href="#id17" x1="1908" y1="1309" x2="1839" y2="1266">
  </linearGradient>
  <linearGradient id="id21" gradientUnits="userSpaceOnUse" xlink:href="#id3" x1="757" y1="1846" x2="1298" y2="1846">
  </linearGradient>
  <linearGradient id="id22" gradientUnits="userSpaceOnUse" xlink:href="#id3" x1="1256" y1="1796" x2="1515" y2="1796">
  </linearGradient>
  <linearGradient id="id23" gradientUnits="userSpaceOnUse" xlink:href="#id17" x1="951" y1="1882" x2="773" y2="2224">
  </linearGradient>
  <linearGradient id="id24" gradientUnits="userSpaceOnUse" xlink:href="#id5" x1="1526" y1="1692" x2="1571" y2="1940">
  </linearGradient>
  <linearGradient id="id25" gradientUnits="userSpaceOnUse" xlink:href="#id9" x1="537" y1="905" x2="1396" y2="1610">
  </linearGradient>
  <linearGradient id="id26" gradientUnits="userSpaceOnUse" xlink:href="#id9" x1="1845" y1="1190" x2="1355" y2="471">
  </linearGradient>
  <linearGradient id="id27" gradientUnits="userSpaceOnUse" xlink:href="#id0" x1="941" y1="920" x2="759" y2="800">
  </linearGradient>
  <linearGradient id="id28" gradientUnits="userSpaceOnUse" xlink:href="#id0" x1="1080" y1="1639" x2="777" y2="2011">
  </linearGradient>
  <linearGradient id="id29" gradientUnits="userSpaceOnUse" xlink:href="#id2" x1="1154" y1="1595" x2="1275" y2="1513">
  </linearGradient>
  <linearGradient id="id30" gradientUnits="userSpaceOnUse" xlink:href="#id15" x1="1235" y1="559" x2="1297" y2="559">
  </linearGradient>
  <linearGradient id="id31" gradientUnits="userSpaceOnUse" xlink:href="#id9" x1="1670" y1="1678" x2="1492" y2="1949">
  </linearGradient>
  <linearGradient id="id32" gradientUnits="userSpaceOnUse" xlink:href="#id2" x1="1302" y1="519" x2="1456" y2="519">
  </linearGradient>
  <linearGradient id="id33" gradientUnits="userSpaceOnUse" xlink:href="#id3" x1="2298" y1="1062" x2="1566" y2="612">
  </linearGradient>
  <linearGradient id="id34" gradientUnits="userSpaceOnUse" xlink:href="#id17" x1="1062" y1="446" x2="1082" y2="315">
  </linearGradient>
  <linearGradient id="id35" gradientUnits="userSpaceOnUse" xlink:href="#id2" x1="1685" y1="670" x2="1764" y2="723">
  </linearGradient>
  <linearGradient id="id36" gradientUnits="userSpaceOnUse" xlink:href="#id5" x1="1060" y1="1003" x2="1080" y2="475">
  </linearGradient>
  <linearGradient id="id37" gradientUnits="userSpaceOnUse" xlink:href="#id1" x1="817" y1="1092" x2="945" y2="776">
  </linearGradient>
  <linearGradient id="id38" gradientUnits="userSpaceOnUse" xlink:href="#id9" x1="1958" y1="1326" x2="1539" y2="1148">
  </linearGradient>
  <linearGradient id="id39" gradientUnits="userSpaceOnUse" xlink:href="#id5" x1="586" y1="2240" x2="842" y2="2240">
  </linearGradient>
  <linearGradient id="id40" gradientUnits="userSpaceOnUse" xlink:href="#id17" x1="-67" y1="1580" x2="1252" y2="952">
  </linearGradient>
  <linearGradient id="id41" gradientUnits="userSpaceOnUse" xlink:href="#id5" x1="1302" y1="150" x2="1610" y2="126">
  </linearGradient>
 </defs>
 <g id="Layer_x0020_1">
  <metadata id="CorelCorpID_0Corel-Layer"/>
  <g id="_1682181381936">
   <path class="fil0" d="M1891 724c-716,-253 -195,-803 -1053,-543 -730,221 -1146,1339 -392,1900 1224,911 2316,-1049 1445,-1357z"/>
   <path class="fil1" d="M1891 724c-112,-40 -193,-86 -255,-136l-1352 0c-317,434 -363,1084 141,1477l1333 0c476,-403 646,-1160 132,-1341z"/>
   <path class="fil2" d="M1065 842c-319,0 -634,18 -944,52 -150,403 -89,880 326,1188 1071,798 2042,-606 1682,-1174 -348,-43 -703,-66 -1063,-66z"/>
   <path class="fil3" d="M1369 1674c-92,-36 -214,-55 -344,-55 -130,0 -252,19 -344,55 -79,31 -129,70 -144,114l-359 0c5,9 10,17 16,26l339 0c0,1 0,2 0,3 0,55 53,106 149,143 92,36 214,55 344,55 130,0 252,-19 344,-55 96,-37 149,-88 149,-143 0,-1 0,-2 0,-3l469 0c6,-8 12,-17 17,-26l-491 0c-15,-44 -65,-84 -144,-114zm-679 24c89,-34 208,-53 335,-53 127,0 246,19 335,53 66,25 109,57 126,91l-921 0c16,-33 60,-65 126,-91zm670 238c-89,34 -208,53 -335,53 -127,0 -246,-19 -335,-53 -84,-32 -132,-76 -132,-119 0,-1 0,-2 0,-3l934 0c0,1 0,2 0,3 0,43 -48,86 -133,119z"/>
   <path class="fil3" d="M2188 1053c-355,68 -817,105 -1301,105 -286,0 -579,-13 -827,-37 -1,8 -3,17 -4,25 249,24 544,37 831,37 486,0 950,-38 1307,-106l-2 -13c-1,-4 -2,-8 -3,-12z"/>
   <rect class="fil4" x="1042" y="385" width="61" height="556"/>
   <path class="fil5" d="M1107 234l-64 0c-57,0 -103,46 -103,103l0 54c0,12 10,22 22,22l230 0c12,0 22,-10 22,-22l0 -51c0,-58 -47,-106 -106,-106z"/>
   <path class="fil3" d="M1015 387l114 0 0 -114 -114 0 0 114zm7 -107l99 0 0 99 -99 0 0 -99z"/>
   <path class="fil6" d="M1023 411l3 7c31,-15 53,-30 65,-40l-5 -6c-12,9 -33,24 -64,39z"/>
   <path class="fil7" d="M1132 373l-118 0 18 108 41 -17 41 17 15 -92c2,-2 4,-3 4,-4l-3 -3 2 -10zm-109 7l40 0 -1 1c8,6 20,14 35,23 -7,4 -14,9 -23,14 -30,-17 -47,-32 -51,-36l0 -2zm8 48l-5 -34c8,7 21,17 42,29 -8,4 -16,8 -25,13 -4,-3 -7,-5 -11,-8zm2 10c1,0 1,1 1,1 0,0 -1,0 -1,1l0 -2zm5 33l-4 -24c2,-1 5,-2 7,-3 9,6 17,11 25,15l-28 11zm11 -31c9,-4 18,-9 26,-13 8,4 16,9 26,13 -9,6 -18,11 -26,15 -6,-3 -15,-9 -25,-15zm60 31l-27 -11c8,-4 17,-10 26,-16 2,1 3,1 5,2l-4 25zm7 -41c-3,2 -5,4 -8,6 -9,-4 -18,-9 -26,-13 9,-5 16,-10 23,-14 4,2 9,5 13,7l-2 14zm3 -21c-3,-1 -5,-3 -8,-4 4,-3 7,-5 10,-8l-2 12zm4 -23c-4,3 -10,9 -19,15 -13,-7 -24,-14 -32,-20l51 0 -1 5z"/>
   <path class="fil8" d="M1128 368l-111 0c-5,0 -10,4 -10,10l0 6c0,5 4,10 10,10l111 0c5,0 10,-4 10,-10l0 -6c0,-5 -4,-10 -10,-10z"/>
   <path class="fil9" d="M1656 1762c4,-20 4,-62 4,-62l-148 67 -44 106c-2,40 -5,95 49,104 55,9 75,-35 106,-73 31,-38 40,-55 42,-73 2,-18 -13,-49 -9,-69z"/>
   <path class="fil10" d="M1625 1716l0 0 -123 107 -7 44c-3,14 5,96 -13,93 7,8 18,15 34,17 55,9 75,-35 106,-73 0,0 0,-1 1,-1 -15,17 -22,14 -11,-14 13,-33 -2,-67 9,-98 11,-31 4,-75 4,-75z"/>
   <path class="fil11" d="M1632 1891l1 1 1 -2 -1 -1c0,1 -1,1 -1,2z"/>
   <path class="fil12" d="M1104 1509l-16 78c0,0 140,73 233,56l69 -75 -33 -78 -253 18z"/>
   <path class="fil13" d="M1308 1664c-49,62 -47,129 -55,168 -7,38 15,98 78,106 64,7 160,-44 220,-137 60,-93 -244,-137 -244,-137z"/>
   <path class="fil14" d="M1077 1491c-13,16 -56,117 -66,142 -9,26 -67,44 -106,120 -38,77 -111,301 -164,377 -53,77 29,175 86,66 56,-109 175,-209 220,-277 46,-67 49,-124 95,-171 46,-47 157,-179 157,-179 0,0 -209,-95 -222,-78z"/>
   <path class="fil15" d="M1138 1559c31,14 98,41 126,52 21,-24 35,-42 35,-42 0,0 -81,-37 -145,-60 -3,12 -9,32 -16,50z"/>
   <path class="fil16" d="M1484 1805l-118 107c0,0 38,-2 64,-20 26,-18 93,-66 93,-66 2,-4 -39,-22 -39,-22z"/>
   <path class="fil17" d="M1011 1633c-9,26 -67,44 -106,120 -38,77 -111,301 -164,377 -9,13 -14,26 -16,38l51 -19c66,-131 162,-370 188,-401 26,-31 56,-71 55,-55 -2,16 11,56 16,42 5,-15 15,-60 58,-113 44,-53 44,-64 44,-64 0,0 -51,-14 -89,-15 -16,34 -32,74 -38,88z"/>
   <path class="fil18" d="M1645 1143c-115,-7 -317,-166 -317,-166 0,0 -51,26 -64,64 -49,16 -62,98 -80,117 -18,18 -62,168 -80,230 -18,62 -56,158 -56,158 0,0 93,-4 166,15 73,18 133,24 146,26 -36,46 -82,80 -82,80 0,0 33,9 82,35 49,26 128,137 135,142 7,5 58,-40 58,-40 0,0 66,-33 111,-82 46,-49 111,-140 124,-168 13,-27 9,-60 9,-60 0,0 11,-38 40,-135 29,-97 30,-220 30,-220 0,0 -106,13 -221,5z"/>
   <path class="fil19" d="M1250 444c-8,7 -64,12 -97,97 -34,86 -32,91 -59,138 -27,47 -62,93 -80,144 -34,10 -96,13 -117,22 -20,8 130,123 155,111 25,-12 50,-20 72,-47 22,-27 101,-151 134,-234 34,-82 12,-245 12,-245 0,0 -12,7 -20,13z"/>
   <path class="fil20" d="M1852 1139c-6,1 -13,1 -22,2 -1,11 -5,23 -14,38 -23,39 2,114 8,218 3,-11 7,-24 11,-38 2,-8 5,-16 7,-24 -8,-67 -15,-125 -6,-143 11,-21 16,-37 15,-52z"/>
   <path class="fil21" d="M1654 1085l-340 -86c21,33 69,226 194,288 114,57 242,-84 259,-97 16,-13 -113,-106 -113,-106z"/>
   <path class="fil22" d="M1250 444c-8,7 -64,12 -97,97 -34,86 -32,91 -59,138 -27,47 -62,93 -80,144 -34,10 -96,13 -117,22 -5,2 -1,9 9,19 26,-7 93,-23 106,-17 16,7 31,26 36,20 5,-5 -4,-62 55,-122 58,-60 80,-166 106,-211 26,-46 46,-29 56,-14 2,3 6,1 11,-5 -2,-47 -7,-83 -7,-83 0,0 -11,7 -20,13z"/>
   <path class="fil23" d="M1329 390c0,0 10,39 8,64 -2,26 -9,171 -9,171l137 35 62 -246c0,0 2,-44 0,-64 -2,-20 -198,39 -198,39z"/>
   <path class="fil24" d="M1460 576c-3,5 -38,38 -64,-16 -20,-43 -46,-142 -46,-142l-11 -40 -17 13 -20 55 7 93 119 123c0,0 34,-91 31,-86z"/>
   <circle class="fil25" cx="848" cy="1022" r="201"/>
   <path class="fil26" d="M913 1054c1,-30 17,-52 35,-78 17,-25 36,-53 46,-91 -4,-5 -9,-9 -13,-13 -8,40 -27,68 -45,95 -19,28 -37,54 -38,89 -14,1 -28,2 -42,2l-1 -236c-2,0 -5,0 -7,0 -3,0 -6,0 -9,0l1 236c-14,0 -28,-1 -42,-2 -1,-35 -19,-61 -39,-88 -19,-26 -38,-54 -46,-93 -5,4 -9,9 -13,13 10,38 29,65 46,89 18,26 34,48 36,78 -46,-5 -91,-16 -134,-32 0,0 0,1 0,1 0,5 0,11 1,16 43,15 87,26 133,31 -4,30 -21,55 -54,74 -10,6 -20,10 -28,13 4,4 8,8 12,12 7,-3 15,-7 24,-11 36,-21 58,-50 62,-86 14,1 28,2 43,2l1 149c3,0 6,0 9,0 2,0 5,0 7,0l-1 -149c14,0 29,-1 43,-2 5,35 26,65 62,85 9,5 17,9 25,12 4,-4 8,-8 12,-12 -9,-3 -19,-7 -30,-13 -32,-18 -50,-42 -54,-73 46,-5 91,-16 134,-32 0,-6 1,-11 1,-17 0,0 0,0 0,0 -43,17 -89,28 -135,34z"/>
   <path class="fil27" d="M848 822c-94,0 -172,65 -194,152 8,109 100,195 212,195 75,0 141,-40 178,-99 4,-16 6,-32 6,-49 -1,-111 -91,-200 -201,-200z"/>
   <path class="fil3" d="M913 1054c1,-30 17,-52 35,-78 17,-25 36,-53 46,-91l0 0c-1,-1 -2,-2 -3,-3 0,0 0,0 0,0 -1,-1 -2,-2 -3,-3 0,0 0,0 0,0 -1,-1 -2,-2 -3,-3 0,0 0,0 0,0 -1,-1 -2,-2 -3,-3l0 0c-8,40 -27,68 -45,95 -19,28 -37,54 -38,89 -14,1 -28,2 -42,2l-1 -236 0 0c-1,0 -2,0 -3,0 -1,0 -3,0 -4,0 -3,0 -6,0 -9,0l1 236c-14,0 -28,-1 -42,-2 -1,-35 -19,-61 -39,-88 -19,-26 -38,-54 -46,-93 0,0 -1,1 -1,1 -1,1 -1,1 -2,2 0,0 -1,1 -1,1 -1,1 -1,1 -2,2 0,0 -1,1 -1,1 -1,1 -2,2 -3,3 0,0 0,0 0,0 -1,1 -2,2 -3,3 10,38 29,65 46,89 18,26 34,48 36,78 -40,-5 -79,-13 -116,-26 2,7 5,13 8,19 35,11 71,18 108,22 -3,24 -15,45 -36,62 5,3 9,6 14,9 22,-19 35,-42 38,-69 14,1 28,2 43,2l0 94c5,1 10,1 16,1l0 -95c14,0 29,-1 43,-2 4,32 22,59 52,79 6,-3 11,-5 17,-8 -31,-18 -49,-42 -53,-72 46,-5 91,-16 134,-32 0,-1 0,-2 0,-3 0,-1 0,-2 0,-3 0,-1 0,-2 0,-4 0,-1 0,-1 0,-2 0,-2 0,-4 0,-5 0,0 0,0 0,0 -44,17 -89,28 -136,33z"/>
   <path class="fil28" d="M1843 746c-51,-151 -102,-275 -102,-275 0,0 -69,-51 -91,-64 -22,-13 -123,-18 -123,-18 0,0 -79,164 -112,207 -33,44 -70,-37 -79,-169 -5,-24 -8,-37 -8,-37l15 -16c0,0 -47,29 -73,56 -27,118 -42,233 -36,250 5,16 27,33 27,33 0,0 7,15 13,27 13,91 40,180 40,180 0,0 -2,18 4,33 -7,27 -5,40 -5,40 0,0 46,77 124,179 78,102 129,91 228,66 98,-26 104,-47 104,-47 0,0 31,-2 51,-18 51,-18 55,-47 55,-58 0,-11 -22,-77 -26,-117 -4,-40 2,-171 -4,-251z"/>
   <path class="fil29" d="M1819 725c4,-60 -148,5 -148,5 64,118 71,250 109,315 36,62 66,77 41,125 13,-5 23,-11 30,-17 7,-37 -17,-64 -54,-127 -41,-68 18,-242 22,-302z"/>
   <path class="fil30" d="M1800 675c-49,-35 -155,-24 -155,-24 -18,-4 -29,24 -11,44 18,20 64,78 124,47 60,-31 91,-33 42,-67z"/>
   <path class="fil31" d="M1614 643c42,-80 89,-152 111,-183 -17,-12 -43,-31 -62,-44 -8,0 -17,0 -25,2 -18,5 -80,35 -71,151 9,117 133,193 182,191 49,-2 61,-31 61,-31l-15 -27c0,0 -90,94 -182,-59z"/>
   <path class="fil32" d="M2353 1162c-5,-2 -58,-34 -68,-38 -10,-3 -67,-56 -84,-70 -5,-26 -14,-36 -15,-45 -2,-9 -19,-89 -34,-147 -15,-58 -48,-106 -68,-123 -21,-17 -108,-89 -161,-123 -53,-34 -53,-26 -82,-60 -29,-34 -99,-101 -173,-127 -11,-4 -86,28 -72,140 14,113 72,117 72,117 0,0 53,-7 67,-15 14,-9 56,60 140,93 84,33 132,60 146,75 14,15 50,81 68,142 19,62 24,110 26,115 2,5 -10,29 -5,55 5,26 17,53 19,62 2,9 28,9 26,-19 -1,-12 0,-34 9,-36 9,-2 22,19 34,39 9,16 17,46 21,58 3,12 19,12 19,0 0,-12 -3,-56 -7,-67 -3,-10 -15,-34 -9,-26 7,9 20,24 22,31 3,12 19,38 24,48 5,10 28,14 24,3 -1,-4 -17,-46 -26,-70 -3,-10 -14,-28 -14,-28 0,0 24,15 31,21 7,5 39,33 48,38 9,5 28,3 22,-3 -5,-7 -50,-48 -51,-50 -2,-2 29,19 39,21 10,2 19,-8 14,-10z"/>
   <path class="fil33" d="M821 1962c-27,68 -55,134 -79,168 -53,77 29,175 86,66 31,-60 81,-118 127,-168 -80,-6 -119,-46 -133,-66z"/>
   <path class="fil34" d="M1415 597c-33,44 -70,-37 -79,-169 -5,-24 -8,-37 -8,-37l15 -16c0,0 -18,11 -38,26 9,54 28,183 62,217 26,26 42,24 42,24 0,0 38,-47 77,-122 30,-58 56,-109 67,-128 -15,-1 -25,-2 -25,-2 0,0 -79,164 -112,207z"/>
   <path class="fil35" d="M1658 685c4,1 7,2 7,2 0,0 53,-7 67,-15 3,-2 7,0 13,4l0 0c-52,-44 -91,-21 -87,9z"/>
   <path class="fil36" d="M1446 1380c-95,21 -209,55 -175,58 35,4 144,-4 157,-13 13,-9 -120,149 -121,153 27,4 46,6 52,7 37,-50 118,-162 118,-162 0,0 104,-46 142,-75 38,-29 -60,5 -173,31z"/>
   <path class="fil37" d="M1270 431c-27,118 -42,233 -36,250 5,16 27,33 27,33 -31,-40 -20,-22 -5,-146 8,-68 35,-142 42,-158 1,-2 1,-4 1,-4 -10,8 -21,17 -29,26z"/>
   <path class="fil38" d="M1285 168l-16 68c-16,20 -5,96 26,75 22,98 98,151 131,153 33,2 98,-62 113,-128 15,-66 18,-95 18,-95l-164 -106 -107 33z"/>
   <path class="fil3" d="M821 1962c-27,68 -55,134 -79,168 -9,13 -14,26 -16,38l51 -19c22,-44 48,-101 73,-158 -14,-11 -24,-22 -30,-29z"/>
   <path class="fil39" d="M1578 209c-2,-42 1,-108 -77,-156 -85,-52 -175,-9 -189,24 -35,-13 -72,21 -63,105 3,27 15,60 15,60 0,0 14,-19 23,-5 8,12 5,68 9,60 11,-24 13,-71 13,-71 0,0 11,-18 22,-40 0,0 24,41 49,47 7,2 -9,-4 -9,-29 168,186 341,31 208,5z"/>
   <path class="fil40" d="M843 2196c-2,-20 -29,-24 -29,-24 0,0 2,-22 -5,-35 -7,-13 -46,-24 -64,-26 -18,-2 -33,53 -33,53 -11,11 -16,40 -16,40 0,0 -5,4 -13,7 -7,4 -42,27 -87,58 -46,31 -18,75 -18,75 0,0 2,9 9,16 7,7 7,11 56,9 49,-2 84,-2 104,-7 20,-5 84,-35 89,-38 5,-4 5,-11 -4,-38 2,-11 5,-64 5,-64 0,0 7,-7 5,-27z"/>
   <path class="fil41" d="M1264 1041c-49,16 -62,98 -80,117 -18,18 -62,168 -80,230 -18,62 -56,158 -56,158 0,0 44,-2 95,3 22,-81 81,-307 89,-326 9,-22 46,44 64,64 18,20 -13,-75 -18,-137 -5,-62 36,-155 36,-155l1 -10c-16,10 -42,30 -51,56z"/>
   <path class="fil42" d="M943 833c-9,2 -22,-9 -35,-20 -13,-11 -26,-13 -49,-9 -13,-5 -38,-2 -47,0 -9,2 -27,15 -27,15 0,0 -38,13 -46,20 -7,7 -13,22 -16,36 -4,15 18,-7 26,-16 7,-9 33,-20 33,-20 -9,16 -7,24 7,16 15,-7 27,-24 27,-24 0,0 23,3 45,-1 -21,25 6,21 35,9 0,0 16,7 32,8 40,22 30,16 49,31 15,11 20,-5 9,-20 -11,-15 -33,-27 -42,-26z"/>
  </g>
 </g>
</svg>
