<?xml version="1.0" encoding="UTF-8"?>
<!DOCTYPE svg PUBLIC "-//W3C//DTD SVG 1.1//EN" "http://www.w3.org/Graphics/SVG/1.1/DTD/svg11.dtd">
<!-- Creator: CorelDRAW X7 -->
<svg xmlns="http://www.w3.org/2000/svg" xml:space="preserve" width="11667px" height="11667px" version="1.1" style="shape-rendering:geometricPrecision; text-rendering:geometricPrecision; image-rendering:optimizeQuality; fill-rule:evenodd; clip-rule:evenodd"
viewBox="0 0 11667 11667"
 xmlns:xlink="http://www.w3.org/1999/xlink">
 <defs>
  <style type="text/css">
   <![CDATA[
    .fil14 {fill:#002B60;fill-rule:nonzero}
    .fil13 {fill:#003475;fill-rule:nonzero}
    .fil15 {fill:#003675;fill-rule:nonzero}
    .fil6 {fill:#00418E;fill-rule:nonzero}
    .fil12 {fill:#004495;fill-rule:nonzero}
    .fil10 {fill:#0056BF;fill-rule:nonzero}
    .fil8 {fill:#1A150F;fill-rule:nonzero}
    .fil19 {fill:#261F16;fill-rule:nonzero}
    .fil7 {fill:#2A231A;fill-rule:nonzero}
    .fil4 {fill:#343121;fill-rule:nonzero}
    .fil18 {fill:#423428;fill-rule:nonzero}
    .fil21 {fill:#75440E;fill-rule:nonzero}
    .fil17 {fill:#C69062;fill-rule:nonzero}
    .fil5 {fill:#D19767;fill-rule:nonzero}
    .fil3 {fill:#E6E6E6;fill-rule:nonzero}
    .fil9 {fill:#EDAA75;fill-rule:nonzero}
    .fil20 {fill:#FF951C;fill-rule:nonzero}
    .fil16 {fill:black;fill-rule:nonzero;fill-opacity:0.050980}
    .fil11 {fill:black;fill-rule:nonzero;fill-opacity:0.101961}
    .fil22 {fill:#3D2A1F;fill-rule:nonzero;fill-opacity:0.101961}
    .fil2 {fill:url(#id0);fill-rule:nonzero;fill-opacity:0.301961}
    .fil23 {fill:url(#id1);fill-rule:nonzero;fill-opacity:0.301961}
    .fil25 {fill:url(#id2);fill-rule:nonzero;fill-opacity:0.301961}
    .fil24 {fill:url(#id3);fill-rule:nonzero;fill-opacity:0.301961}
    .fil0 {fill:url(#id4);fill-rule:nonzero;fill-opacity:0.301961}
    .fil1 {fill:url(#id5);fill-rule:nonzero;fill-opacity:0.301961}
   ]]>
  </style>
  <linearGradient id="id0" gradientUnits="userSpaceOnUse" x1="9212" y1="5603" x2="2870" y2="5948">
   <stop offset="0" style="stop-opacity:1; stop-color:#7542E2"/>
   <stop offset="0.988235" style="stop-opacity:1; stop-color:#B53195"/>
   <stop offset="1" style="stop-opacity:1; stop-color:#B53195"/>
  </linearGradient>
  <linearGradient id="id1" gradientUnits="userSpaceOnUse" xlink:href="#id0" x1="9048" y1="2596" x2="10157" y2="2596">
  </linearGradient>
  <linearGradient id="id2" gradientUnits="userSpaceOnUse" xlink:href="#id0" x1="8914" y1="8167" x2="9431" y2="8167">
  </linearGradient>
  <linearGradient id="id3" gradientUnits="userSpaceOnUse" xlink:href="#id0" x1="2131" y1="3530" x2="2648" y2="3530">
  </linearGradient>
  <linearGradient id="id4" gradientUnits="userSpaceOnUse" xlink:href="#id0" x1="2241" y1="6013" x2="8593" y2="6013">
  </linearGradient>
  <linearGradient id="id5" gradientUnits="userSpaceOnUse" xlink:href="#id0" x1="3267" y1="3659" x2="7567" y2="8335">
  </linearGradient>
 </defs>
 <g id="__x0023_Layer_x0020_1">
  <metadata id="CorelCorpID_0Corel-Layer"/>
  <path class="fil0" d="M3875 5191c-437,449 -1084,686 -1419,1216 -261,413 -279,959 -82,1406 197,447 594,793 1050,968 457,175 967,185 1443,70 497,-120 962,-375 1330,-731 180,-174 338,-372 537,-525 195,-149 421,-249 638,-365 314,-167 613,-372 841,-644 229,-272 383,-617 380,-972 -3,-297 -114,-583 -252,-846 -314,-602 -790,-1136 -1401,-1431 -611,-296 -1365,-330 -1962,-5 -131,71 -256,161 -343,282 -158,218 -211,535 -293,790 -94,294 -251,566 -467,788z"/>
  <path class="fil1" d="M5184 4184c-626,-17 -1239,-334 -1855,-222 -481,87 -895,443 -1091,891 -196,448 -182,974 -2,1428 181,454 519,837 925,1109 425,285 927,454 1438,484 250,15 503,-3 750,40 242,42 469,141 700,222 335,118 688,199 1043,184 355,-16 714,-135 973,-378 217,-203 352,-478 452,-758 230,-639 301,-1350 105,-2000 -196,-650 -681,-1228 -1324,-1448 -141,-48 -291,-80 -440,-62 -268,32 -537,207 -780,319 -281,130 -586,198 -896,190z"/>
  <path class="fil2" d="M7646 6532c412,-472 1046,-744 1351,-1291 238,-427 227,-973 6,-1408 -221,-436 -636,-760 -1101,-909 -465,-149 -976,-132 -1444,9 -490,147 -940,427 -1288,802 -171,184 -318,390 -508,553 -186,160 -407,272 -617,399 -304,184 -592,405 -805,688 -214,284 -349,637 -326,991 19,296 146,576 297,831 347,584 850,1091 1477,1353 627,262 1381,255 1959,-101 127,-78 247,-174 327,-300 146,-227 182,-546 249,-805 78,-299 220,-578 423,-812z"/>
  <g id="_2125532175056">
   <path class="fil3" d="M8690 10154c0,123 -1280,223 -2859,223 -1579,0 -2859,-100 -2859,-223 0,-123 1280,-223 2859,-223 1579,0 2859,100 2859,223z"/>
   <g>
    <g>
     <path class="fil4" d="M5192 3087c8,-73 63,-130 107,-188 132,-173 187,-403 148,-617 12,10 25,19 37,29 -24,-96 -48,-192 -72,-288 16,12 37,17 57,16 -72,-95 -156,-182 -250,-255 21,-8 41,-16 61,-24 -134,-13 -267,-42 -394,-86 -139,308 -133,672 8,979 48,103 110,199 172,295 35,54 74,100 125,140z"/>
    </g>
    <g>
     <path class="fil4" d="M5089 1828c-75,-83 -155,-161 -240,-234 5,16 10,32 15,49 -96,-13 -194,-18 -291,-14 13,13 25,26 38,39 -160,50 -312,128 -445,230 21,-13 44,-23 69,-28 -132,150 -192,361 -159,559 -3,-14 1,-29 9,-40 20,49 46,96 76,140 58,-26 131,-35 194,-44 33,-4 67,-6 97,7 25,11 45,30 66,48 67,56 149,94 235,103 86,9 177,-12 246,-65 54,-41 94,-99 131,-156 21,-32 41,-64 53,-100 14,-42 15,-86 13,-130 -6,-124 -23,-271 -106,-363z"/>
    </g>
    <g>
     <path class="fil5" d="M6136 8457c0,0 231,143 315,227 84,84 744,385 744,385l400 244c0,0 170,-234 134,-494 0,0 -45,-48 -65,-60 -21,-11 -84,-24 -117,-43 -34,-19 -214,-187 -234,-218 -20,-31 -252,-386 -545,-428 -294,-42 -643,0 -643,0l13 387z"/>
    </g>
    <g>
     <path class="fil6" d="M7728 8818c0,0 -45,-48 -65,-60 -21,-11 -84,-24 -117,-43 -34,-19 -214,-187 -234,-218 -6,-10 -34,-52 -78,-106 -33,140 -81,276 -149,403 -32,60 -69,118 -110,172 124,59 220,103 220,103l400 244c0,0 170,-234 134,-494z"/>
    </g>
    <g>
     <path class="fil7" d="M7728 8818c0,0 14,372 -151,494 0,0 56,83 76,192 19,109 68,285 80,383 12,99 23,330 54,347 31,17 274,25 411,-31 137,-56 168,-81 190,-190 22,-109 3,-168 -20,-224 -22,-56 -84,-103 -84,-162 0,-59 17,-185 25,-227 8,-42 22,-218 3,-308 -20,-89 -39,-205 -162,-246 -123,-42 -422,-29 -422,-29z"/>
    </g>
    <g>
     <path class="fil8" d="M8299 9468c4,-28 8,-53 11,-67 8,-42 22,-218 3,-308 -20,-89 -39,-205 -162,-246 -28,-9 -65,-16 -105,-21 56,31 122,77 139,123 29,83 114,465 115,519l0 0z"/>
    </g>
    <g>
     <path class="fil9" d="M7989 4421c0,0 30,37 57,0 27,-37 4,-103 -8,-111 -13,-8 -44,-34 -67,-43 -23,-10 -140,-10 -164,-10 -24,0 -62,10 -62,10 0,0 200,94 245,155z"/>
    </g>
    <g>
     <path class="fil10" d="M4710 6429c130,-45 266,-75 403,-88 125,-12 258,-14 361,-84 85,-58 134,-154 194,-238 80,-113 182,-209 290,-295 199,-159 415,-291 602,-465 4,-3 7,-6 10,-9 -2,-2 -3,-4 -5,-6 -20,-25 -53,31 -56,-45 -3,-76 31,-162 34,-193 3,-31 50,-131 -28,-288 -78,-157 -252,-431 -291,-453 -39,-22 -101,-246 -101,-246 0,0 -224,-833 -352,-928 -129,-95 -703,-121 -865,-98 0,0 -502,127 -607,189 0,0 -50,80 -126,134 -76,55 -281,210 -298,235 -17,25 -319,700 42,1485 0,0 168,151 247,185 0,0 124,555 325,857 93,139 166,258 220,353z"/>
    </g>
    <g>
     <path class="fil11" d="M4925 5364c-162,-11 -333,-81 -409,-225 -44,-83 -51,-180 -58,-274 -16,-230 -31,-460 -47,-690 -13,-193 -31,-399 -154,-548 -67,-82 -158,-137 -253,-186 -64,49 -121,95 -129,108 -17,25 -319,700 42,1485 0,0 168,151 247,185 0,0 124,555 325,857 26,39 51,77 74,113 242,15 494,39 700,-83 -101,-24 -202,-48 -304,-72 192,16 390,-78 499,-237 -272,70 -569,39 -821,-86 -48,-24 -95,-52 -128,-94 -59,-78 -59,-191 -125,-263 258,139 567,173 853,110 107,-23 214,-62 293,-136 118,-110 158,-278 192,-436 -139,298 -471,494 -800,473z"/>
    </g>
    <g>
     <path class="fil11" d="M6559 5258c4,-3 7,-6 10,-9 -2,-2 -3,-4 -5,-6 -20,-25 -53,31 -56,-45 -3,-76 31,-162 34,-193 3,-31 50,-131 -28,-288 -78,-157 -252,-431 -291,-453 -39,-22 -101,-246 -101,-246 0,0 -224,-833 -352,-928 -15,-11 -37,-22 -63,-31 -20,69 -33,141 -40,209 -28,260 37,528 164,755 58,105 130,205 162,321 52,192 -15,394 -80,582 -71,204 -159,426 -351,525 -82,42 -174,57 -265,71 -198,31 -397,62 -598,64 211,82 438,137 663,111 225,-26 447,-144 557,-342 17,171 -69,348 -214,441 -27,17 -57,33 -78,57 -19,23 -29,53 -40,81 -59,154 -164,288 -295,388 66,-10 128,-29 183,-66 85,-58 134,-154 194,-238 80,-113 182,-209 290,-295 199,-159 415,-291 602,-465z"/>
    </g>
    <g>
     <path class="fil12" d="M5388 3114c38,85 35,190 30,349 -2,58 -3,124 -3,199 0,233 -196,547 -248,625 -187,-81 -402,-302 -621,-641 -119,-184 -212,-359 -258,-452 -8,12 -21,29 -38,48 50,98 138,262 249,434 103,160 206,295 306,402 126,135 248,226 363,270 3,1 7,2 10,2 9,0 18,-4 23,-12 3,-4 68,-98 135,-228 90,-177 136,-327 136,-448 0,-74 2,-139 3,-197 5,-167 7,-277 -35,-373 -16,-35 -42,-68 -68,-94 -31,-3 -63,-5 -94,-7 32,24 87,71 111,124z"/>
    </g>
    <g>
     <path class="fil12" d="M4241 3641c-23,-35 -101,-151 -152,-179 -26,-14 -55,-21 -81,-24 -26,20 -50,39 -72,56 20,-3 80,-8 126,17 55,30 216,272 238,371 10,45 26,244 21,466 -6,261 -38,444 -91,515 -89,120 -207,183 -269,210 14,12 30,26 48,40 72,-34 180,-101 266,-217 76,-103 97,-354 102,-547 5,-213 -10,-422 -22,-479 -11,-51 -54,-137 -114,-229z"/>
    </g>
    <g>
     <path class="fil12" d="M6515 4717c-8,-15 -16,-31 -25,-48 -166,-65 -365,-230 -431,-315 -45,-57 -127,-240 -225,-503 -85,-227 -150,-430 -156,-470 -8,-62 5,-233 14,-329 -17,-5 -35,-10 -55,-15 -9,95 -25,281 -15,351 13,95 279,855 392,999 75,95 318,299 511,351 -3,-7 -7,-15 -11,-22z"/>
    </g>
    <g>
     <path class="fil13" d="M6738 5886c0,0 39,-291 0,-341 -39,-50 25,-129 -31,-165 -56,-36 -123,-112 -143,-137 -13,-17 -33,3 -45,-6 0,0 -220,263 -371,305 -151,42 -249,179 -350,281 -101,102 -224,292 -291,360 -67,67 -605,148 -668,148 -27,0 -96,15 -166,37 85,144 133,244 140,290 11,73 227,629 332,717 0,0 42,466 436,579 0,0 135,251 185,267 50,17 134,129 143,171 8,42 -42,131 -45,193 -3,62 324,120 350,34 25,-87 -17,-252 0,-277 17,-25 383,-615 350,-688 -34,-73 -173,-364 -179,-425 -6,-62 84,-464 84,-464 0,0 155,-34 205,-213 0,0 69,-121 86,-242 17,-121 56,-297 20,-353 -36,-56 -42,-70 -42,-70z"/>
    </g>
    <g>
     <path class="fil6" d="M6675 6551c0,0 69,-121 86,-242 17,-121 56,-297 20,-353 -36,-56 -42,-70 -42,-70 0,0 39,-291 0,-341 -39,-50 25,-129 -31,-165 -56,-36 -123,-112 -143,-137 -13,-17 -33,3 -45,-6 0,0 -220,263 -371,305 -151,42 -249,179 -350,281 -35,35 -72,81 -109,128 -22,45 -46,89 -70,132 -147,268 -312,541 -335,846 -8,98 0,198 40,288 28,64 71,120 116,172 93,108 198,206 313,290 -32,-245 -19,-503 33,-745 97,37 205,83 242,180 13,34 16,71 18,108 5,72 9,143 14,215 4,62 9,126 38,182 31,59 86,100 141,137 72,50 147,97 223,142 3,2 5,3 8,5 62,-119 108,-223 95,-250 -34,-73 -173,-364 -179,-425 -6,-62 84,-464 84,-464 0,0 155,-34 205,-213z"/>
    </g>
    <g>
     <path class="fil11" d="M6565 7653c-34,-73 -173,-364 -179,-425 -6,-62 84,-464 84,-464 0,0 155,-34 205,-213 0,0 69,-121 86,-242 17,-121 56,-297 20,-353 -36,-56 -42,-70 -42,-70 0,0 39,-291 0,-341 -39,-50 25,-129 -31,-165 -56,-36 -123,-112 -143,-137 -13,-17 -33,3 -45,-6 0,0 -64,77 -147,154 -31,143 -26,305 -26,424 -234,1 -424,178 -589,343 186,-125 411,-191 634,-188 -85,44 -170,87 -256,131 -89,45 -182,96 -231,183 66,-31 147,-26 208,13 -69,-6 -139,27 -178,84 -39,57 -45,135 -14,196 -69,21 -137,42 -206,63 -113,35 -230,72 -313,155 -59,59 -96,137 -119,218 2,70 14,139 42,203 28,64 71,120 116,172 64,75 134,144 208,207 34,7 67,18 99,29 -24,-229 -9,-467 39,-691 97,37 205,83 242,180 13,34 16,71 18,108 5,72 9,143 14,215 4,62 9,126 38,182 31,59 86,100 141,137 72,50 147,97 223,142 3,2 5,3 8,5 62,-119 108,-223 95,-250z"/>
    </g>
    <g>
     <path class="fil14" d="M6565 5242c-13,-17 -33,3 -45,-6 0,0 -220,263 -371,305 -151,42 -249,179 -350,281 -101,102 -224,292 -291,360 -67,67 -605,148 -668,148 -27,0 -96,15 -166,37 17,30 33,57 48,83 216,-34 748,-121 816,-172 87,-64 185,-263 282,-380 98,-117 220,-222 350,-291 130,-68 272,-204 272,-204 76,-72 116,-119 135,-145 -5,-6 -10,-12 -13,-16z"/>
    </g>
    <g>
     <path class="fil15" d="M6456 4608c-86,-150 -201,-326 -232,-344 -39,-22 -101,-246 -101,-246 0,0 -9,-32 -23,-84 -52,9 -88,55 -44,197 95,303 400,477 400,477z"/>
    </g>
    <g>
     <path class="fil15" d="M4202 4801c27,-89 34,-450 34,-450 0,0 -11,-358 -34,-461 -22,-103 -158,-318 -200,-338 -28,-14 -87,-9 -124,-5 -1,1 -2,2 -3,3 -17,25 -319,700 42,1485 69,-26 258,-144 285,-233z"/>
    </g>
    <g>
     <path class="fil5" d="M4906 2991c0,0 -382,96 -549,162 102,201 424,802 714,967 40,23 91,6 111,-35 78,-165 247,-607 89,-1095 -152,-9 -296,-8 -365,1z"/>
    </g>
    <g>
     <path class="fil16" d="M5270 2990c-152,-9 -296,-8 -365,1 0,0 -3,1 -9,2 -81,48 -159,99 -228,163 -79,73 -134,144 -167,246 62,4 115,47 176,60 90,19 179,-32 258,-81 -19,51 -38,101 -56,152 53,-42 106,-85 159,-127 -11,81 -36,161 -72,234 55,-40 104,-87 146,-141 0,90 -40,177 -33,267 5,64 34,126 32,190 -1,31 -11,64 -37,81 -13,8 -28,12 -43,15 -17,3 -34,5 -51,5 30,25 60,47 90,64 40,23 91,6 111,-35 78,-165 247,-607 89,-1095z"/>
    </g>
    <g>
     <path class="fil17" d="M4202 4801c27,-89 34,-450 34,-450 0,0 -1,-22 -2,-57 -49,-13 -106,-18 -127,10 -26,34 -118,341 -118,341 0,0 69,188 116,275 47,-38 87,-81 98,-118z"/>
    </g>
    <g>
     <path class="fil16" d="M4106 4303c-26,34 -118,341 -118,341 0,0 14,38 33,87 60,-45 126,-117 126,-146 1,29 1,57 2,86 16,1 33,-8 40,-23 -15,82 -55,158 -111,219 9,19 17,37 25,52 47,-38 87,-81 98,-118 27,-89 34,-450 34,-450 0,0 -1,-22 -2,-57 -49,-13 -106,-18 -127,10z"/>
    </g>
    <g>
     <path class="fil9" d="M5771 3089c0,0 -39,171 0,327 39,157 271,718 285,714 0,0 50,-96 82,-96 32,0 272,79 293,96 21,18 421,269 421,269l216 144 621 -268c0,0 -126,-70 -201,-112 -76,-42 -246,-67 -271,-95 -25,-28 -103,-131 -185,-190 -81,-59 -254,-157 -324,-193 0,0 -299,-548 -937,-596z"/>
    </g>
    <g>
     <path class="fil16" d="M7186 4272c-40,18 -78,44 -122,48 -54,4 -104,-27 -149,-57 -128,-84 -255,-169 -383,-253 35,-49 61,-104 78,-161 -93,92 -237,128 -361,90 -15,-5 -31,-11 -39,-24 -7,-11 -8,-25 -8,-38 -2,-75 -4,-149 -6,-224 -28,51 -55,102 -83,154 -17,-76 -34,-151 -51,-227 -8,64 -16,129 -24,193 -63,-136 -127,-273 -158,-419 -17,-78 -26,-167 -17,-252 -30,-5 -61,-8 -93,-11 0,0 -39,171 0,327 39,157 271,718 285,714 0,0 50,-96 82,-96 32,0 272,79 293,96 21,18 421,269 421,269l216 144 375 -162c12,-17 26,-34 44,-44 19,-11 44,-12 62,-2l1 -1c-95,-90 -246,-116 -365,-63z"/>
    </g>
    <g>
     <path class="fil9" d="M8165 4658c0,0 102,-7 131,216 8,64 -51,45 -62,39 0,0 -39,-210 -69,-255z"/>
    </g>
    <g>
     <path class="fil9" d="M8143 4614c0,0 35,41 61,19 26,-22 17,-149 0,-162 -17,-13 -65,-52 -76,-56 -11,-4 -110,-13 -110,-13l-47 0c0,0 151,155 172,212z"/>
    </g>
    <g>
     <path class="fil9" d="M6228 7374c0,0 42,-159 -109,-336 -151,-176 -323,-243 -461,-222 -80,12 -152,40 -200,61 -36,16 -62,49 -71,87 -18,86 -43,242 -1,323 40,77 171,380 494,519 0,0 105,88 134,180 29,92 302,491 499,646 0,0 193,214 222,319 29,105 155,172 155,172 0,0 302,-59 378,-134 76,-76 101,-143 101,-143 0,0 -67,-197 -185,-306 0,0 -62,-47 -98,-71 -35,-24 -95,-110 -95,-110 0,0 -474,-863 -763,-985z"/>
    </g>
    <g>
     <path class="fil10" d="M7185 8540c0,0 -62,-47 -98,-71 -35,-24 -95,-110 -95,-110 0,0 -165,-300 -359,-572 -138,170 -288,333 -468,447 102,144 238,310 349,397 0,0 193,214 222,319 29,105 155,172 155,172 0,0 302,-59 378,-134 76,-76 101,-143 101,-143 0,0 -67,-197 -185,-306z"/>
    </g>
    <g>
     <path class="fil16" d="M7269 8989c76,-76 101,-143 101,-143 0,0 -67,-197 -185,-306 0,0 -62,-47 -98,-71 -35,-24 -95,-110 -95,-110 0,0 -474,-863 -763,-985 0,0 42,-159 -109,-336 -151,-176 -323,-243 -461,-222 -80,12 -152,40 -200,61 -36,16 -62,49 -71,87 -11,53 -25,135 -24,208 70,-30 147,-47 223,-48 170,-3 338,66 469,174 62,51 55,153 59,234 4,80 -31,167 -103,204 92,-45 175,-109 241,-188 2,45 -1,90 -8,135 51,-16 98,31 131,73 310,397 592,831 749,1306 61,-21 117,-46 144,-73z"/>
    </g>
    <g>
     <path class="fil18" d="M6912 9054c0,0 -62,67 -62,117 0,50 89,165 131,221 42,56 73,131 76,165 3,34 73,78 92,129 20,50 3,151 28,238 25,87 73,246 140,254 67,8 596,-249 620,-355 24,-106 35,-143 0,-221 -35,-78 -164,-305 -200,-350 -36,-45 -343,-403 -367,-406 -24,-2 -393,168 -458,207z"/>
    </g>
    <g>
     <path class="fil19" d="M7423 9512c-5,-25 -173,-441 -244,-589 -110,50 -233,109 -268,130 0,0 -11,12 -23,29 67,92 373,505 418,525 50,22 123,-65 117,-95z"/>
    </g>
    <g>
     <path class="fil18" d="M7166 8730c0,0 -375,179 -383,201 -8,22 25,98 39,109 14,11 157,176 190,143 28,-28 145,-126 257,-129 0,0 31,-207 0,-232 -31,-25 -62,-95 -103,-92z"/>
    </g>
    <g>
     <path class="fil19" d="M7937 9823c15,-67 25,-106 22,-146 -54,51 -152,131 -292,213 -165,96 -364,162 -438,184 24,54 53,99 88,104 67,8 596,-249 620,-355z"/>
    </g>
    <g>
     <path class="fil8" d="M8388 10013c12,-57 12,-100 6,-137 -60,279 -481,269 -636,255 7,54 16,96 29,103 31,17 274,25 411,-31 137,-56 168,-81 190,-190z"/>
    </g>
    <g>
     <path class="fil9" d="M4166 2326c0,0 -8,207 0,243 8,36 34,76 34,76 0,0 11,6 17,62 6,56 8,131 25,168 17,36 56,120 67,187 11,67 107,316 165,364 58,47 179,24 243,0 89,-34 473,-282 489,-456 0,0 92,-56 130,-137 38,-81 94,-439 74,-554 -17,-102 -144,-361 -370,-491 -51,-30 -109,-46 -169,-48 -48,-1 -109,2 -157,19 -95,34 -492,154 -579,442 0,0 -31,76 0,101 31,25 8,24 31,25z"/>
    </g>
    <g>
     <path class="fil16" d="M5140 1858c-147,3 -294,27 -430,81 -160,64 -280,193 -372,339 84,139 206,256 349,334 -5,-22 -10,-44 -15,-66 69,45 129,103 177,170 1,-25 -4,-50 -14,-73 75,102 121,225 131,352 5,61 1,124 -21,180 -34,86 -105,150 -177,209 -18,15 -37,30 -56,44 1,0 2,-1 4,-1 89,-34 473,-282 489,-456 0,0 92,-56 130,-137 38,-81 94,-439 74,-554 -15,-86 -106,-282 -270,-420z"/>
    </g>
    <g>
     <path class="fil4" d="M5053 1761c-54,-31 -115,-48 -177,-50 -51,-1 -115,2 -165,19 -100,35 -516,161 -606,463 0,0 -32,79 0,105 32,26 9,25 32,26 0,0 0,1 0,3 19,0 44,-1 73,-7 126,-25 227,-57 321,-64 94,-7 262,-12 270,19 7,31 7,104 56,173 48,69 120,120 120,145 0,25 22,135 45,180 23,45 40,88 40,88 0,0 54,-173 117,-231 63,-59 132,-40 151,-13 19,26 21,97 0,142 -21,45 -79,148 -79,148 0,0 -38,62 -28,81 32,-24 114,-77 140,-132 40,-85 98,-460 78,-580 -18,-107 -151,-378 -388,-514z"/>
    </g>
    <g>
     <path class="fil4" d="M4129 2420c33,-29 67,-57 100,-86 -6,36 -13,71 -19,107 24,-30 50,-58 78,-84 14,26 27,52 41,77 16,-28 29,-57 38,-88 68,61 151,106 239,129 -25,-34 -46,-72 -61,-111 48,52 110,90 178,111 -16,-31 -26,-66 -28,-101 45,93 161,141 190,240 -6,-31 -12,-61 -18,-92 51,91 97,185 137,281 32,-98 81,-190 144,-272 -36,-98 -75,-187 -116,-282 -25,-57 -53,-115 -102,-153 -63,-48 -147,-55 -226,-54 -65,1 -130,5 -193,23 -92,26 -174,79 -255,131 -38,25 -78,51 -105,87 -27,37 -41,96 -22,138z"/>
    </g>
    <g>
     <path class="fil9" d="M5388 6211c-27,-18 -54,-36 -85,-46 -49,-17 -102,-15 -153,-19 -52,-4 -114,-7 -143,-50 -4,-6 -8,-11 -12,-17 20,-3 39,-7 58,-12 49,-14 97,-40 130,-80 21,-26 24,-49 13,-80 -168,68 -357,82 -534,42 -10,-4 -19,-7 -29,-11 -38,-12 -76,-25 -114,-38 -1,1 -1,2 -2,3 -103,-49 -291,-165 -360,-194 0,0 -380,-313 -431,-341 0,0 168,-344 190,-484 22,-140 115,-229 115,-229 0,0 103,-204 103,-240 0,-36 81,-62 103,-64 0,0 39,-380 -34,-537 -73,-157 -185,-281 -204,-282 0,0 -66,-9 -122,18 -57,27 -384,429 -331,782 0,0 -20,98 -59,173 -39,76 -151,369 -145,512 6,143 -70,347 -70,419 0,73 -53,316 162,425 215,109 459,249 484,249 25,0 207,89 246,101 24,7 111,40 184,73 3,21 9,41 19,61 17,34 65,39 90,68 12,14 17,32 27,48 8,13 18,25 27,38 88,121 130,270 138,419 1,16 14,34 30,38 16,4 32,1 47,-5 3,-1 7,-3 9,-6 4,-5 2,-13 1,-19 -30,-116 -41,-237 -52,-356 -3,-29 -2,-65 24,-78 6,3 8,1 14,3 12,18 21,38 31,57 58,100 169,161 219,265 13,27 22,58 44,79 22,21 60,30 78,4 1,-52 -24,-102 -53,-145 -30,-43 -64,-83 -87,-131 -22,-46 -32,-99 -70,-133 -11,-10 -25,-18 -36,-28 -11,-11 -21,-26 -19,-42 2,-16 19,-25 34,-19 135,62 266,132 391,210 25,15 51,32 80,34 29,2 53,-14 58,-43 -51,-74 -119,-133 -188,-190 -50,-41 -102,-83 -160,-111 -18,-9 -12,-36 8,-37 72,-2 145,2 216,11 21,3 43,6 62,17 12,7 23,17 36,22 24,10 52,5 78,0 23,-5 46,-12 51,-35 -35,-23 -70,-46 -105,-69z"/>
    </g>
    <g>
     <path class="fil16" d="M4809 6112c15,-6 27,-18 39,-30 94,-86 234,-95 352,-142 0,-10 -2,-22 -7,-34 -168,68 -357,82 -534,42 -10,-4 -19,-7 -29,-11 -38,-12 -76,-25 -114,-38 -1,1 -1,2 -2,3 -103,-49 -291,-165 -360,-194 0,0 -380,-313 -431,-341 0,0 168,-344 190,-484 22,-140 115,-229 115,-229 0,0 103,-204 103,-240 0,-36 81,-62 103,-64 0,0 39,-380 -34,-537 -73,-157 -185,-281 -204,-282 0,0 -12,-2 -31,-1 21,20 41,43 57,67 38,56 61,120 78,185 25,101 34,207 13,308 -21,102 -73,198 -155,262 -69,54 -154,81 -238,108 68,11 110,47 168,84 -46,10 -93,15 -140,16 42,9 83,24 120,46 -34,128 -76,273 -110,401 -19,71 -40,145 -93,194 -70,64 -178,70 -247,135 58,1 115,1 173,2 -72,40 -135,96 -185,161 72,-35 146,-64 223,-88 -22,29 -45,57 -67,86 106,-34 218,24 305,93 105,83 195,184 299,268 104,84 229,153 362,155 -22,30 -47,65 -56,101 61,-39 134,-79 200,-52 46,19 88,69 135,51z"/>
    </g>
    <g>
     <g>
      <path class="fil20" d="M8245 4984c0,421 -341,762 -762,762 -421,0 -762,-341 -762,-762 0,-421 341,-762 762,-762 421,0 762,341 762,762z"/>
     </g>
     <g>
      <path class="fil21" d="M8242 5044c2,-20 2,-40 2,-60 0,-3 0,-6 0,-10 -208,80 -405,121 -582,137 1,-34 1,-68 1,-101 1,0 1,0 2,0 52,0 98,-15 138,-45 139,-106 216,-261 256,-372 10,-26 18,-52 25,-77 -16,-21 -33,-41 -52,-59 -9,37 -20,75 -34,114 -37,103 -109,247 -235,343 -29,22 -62,33 -101,32 -4,-220 -28,-404 -72,-550 -22,-74 -47,-130 -71,-172 -12,-1 -25,-1 -37,-1 -13,0 -26,0 -39,1 26,38 58,98 85,191 33,110 62,275 68,521 -213,-58 -480,-355 -617,-523 -16,14 -32,29 -47,45 146,179 430,492 665,545 0,36 0,74 -1,114 -200,12 -374,-8 -510,-35 -156,-31 -281,-75 -365,-111 0,4 0,9 0,13 0,19 1,39 2,58 86,34 203,74 348,102 134,27 271,40 409,40 38,0 77,-1 115,-3 -1,28 -2,56 -4,85 -91,17 -216,66 -373,147 -97,50 -187,102 -244,137 17,15 35,30 53,43 155,-92 404,-227 560,-261 -8,123 -21,260 -40,410 22,-2 44,-5 66,-8 18,-145 31,-282 39,-410 10,0 19,1 27,2 177,34 300,230 302,233 17,-14 32,-29 48,-45 -31,-46 -156,-216 -337,-251 -11,-2 -23,-3 -36,-3 1,-28 3,-56 4,-83 196,-17 391,-61 582,-132z"/>
     </g>
     <g>
      <path class="fil22" d="M7483 4222c-35,0 -70,2 -103,7 372,50 659,369 659,755 0,386 -287,704 -659,755 34,5 68,7 103,7 421,0 762,-341 762,-762 0,-421 -341,-762 -762,-762z"/>
     </g>
    </g>
    <g>
     <path class="fil11" d="M4678 5037c161,128 397,153 581,62 226,-112 346,-361 424,-601 28,-86 53,-173 62,-263 -90,129 -175,252 -266,381 -73,104 -148,210 -254,280 -152,100 -365,136 -548,143z"/>
    </g>
    <g>
     <path class="fil11" d="M7737 9252c-36,-45 -343,-403 -367,-406 -7,-1 -40,12 -86,32 -1,-27 -5,-49 -13,-56 -31,-25 -62,-95 -103,-92 0,0 -32,15 -78,38 4,15 8,32 13,50 9,34 19,69 44,94 33,33 84,38 125,60 41,22 71,83 35,113 37,-5 75,-9 112,-14 31,121 124,216 176,329 23,50 39,104 45,159 25,212 -78,408 -206,585 177,-73 486,-240 504,-321 24,-106 35,-143 0,-221 -35,-78 -164,-305 -200,-350z"/>
    </g>
   </g>
  </g>
  <path class="fil23" d="M10157 2596c0,306 -248,555 -555,555 -306,0 -555,-248 -555,-555 0,-306 248,-555 555,-555 306,0 555,248 555,555z"/>
  <path class="fil24" d="M2648 3530c0,143 -116,259 -259,259 -143,0 -259,-116 -259,-259 0,-143 116,-259 259,-259 143,0 259,116 259,259z"/>
  <path class="fil25" d="M9431 8167c0,143 -116,259 -259,259 -143,0 -259,-116 -259,-259 0,-143 116,-259 259,-259 143,0 259,116 259,259z"/>
 </g>
</svg>
