<?xml version="1.0" encoding="UTF-8"?>
<!DOCTYPE svg PUBLIC "-//W3C//DTD SVG 1.1//EN" "http://www.w3.org/Graphics/SVG/1.1/DTD/svg11.dtd">
<!-- Creator: CorelDRAW X7 -->
<svg xmlns="http://www.w3.org/2000/svg" xml:space="preserve" width="11667px" height="11667px" version="1.1" style="shape-rendering:geometricPrecision; text-rendering:geometricPrecision; image-rendering:optimizeQuality; fill-rule:evenodd; clip-rule:evenodd"
viewBox="0 0 11667 11667"
 xmlns:xlink="http://www.w3.org/1999/xlink">
 <defs>
  <style type="text/css">
   <![CDATA[
    .fil9 {fill:#2A2D41;fill-rule:nonzero}
    .fil7 {fill:#31364D;fill-rule:nonzero}
    .fil10 {fill:#7480BC;fill-rule:nonzero}
    .fil20 {fill:#75440E;fill-rule:nonzero}
    .fil3 {fill:#7C4400;fill-rule:nonzero}
    .fil13 {fill:#822828;fill-rule:nonzero}
    .fil14 {fill:#B58259;fill-rule:nonzero}
    .fil15 {fill:#DFA170;fill-rule:nonzero}
    .fil8 {fill:#DFE6FD;fill-rule:nonzero}
    .fil5 {fill:#EBEDFD;fill-rule:nonzero}
    .fil4 {fill:#EDAA75;fill-rule:nonzero}
    .fil11 {fill:#F24D4D;fill-rule:nonzero}
    .fil19 {fill:#FF951C;fill-rule:nonzero}
    .fil6 {fill:black;fill-rule:nonzero;fill-opacity:0.050980}
    .fil21 {fill:#3D2A1F;fill-rule:nonzero;fill-opacity:0.101961}
    .fil12 {fill:black;fill-rule:nonzero;fill-opacity:0.149020}
    .fil1 {fill:url(#id0);fill-rule:nonzero;fill-opacity:0.400000}
    .fil16 {fill:url(#id1);fill-rule:nonzero;fill-opacity:0.400000}
    .fil18 {fill:url(#id2);fill-rule:nonzero;fill-opacity:0.400000}
    .fil2 {fill:url(#id3);fill-rule:nonzero;fill-opacity:0.400000}
    .fil0 {fill:url(#id4);fill-rule:nonzero;fill-opacity:0.400000}
    .fil17 {fill:url(#id5);fill-rule:nonzero;fill-opacity:0.400000}
   ]]>
  </style>
  <linearGradient id="id0" gradientUnits="userSpaceOnUse" x1="3651" y1="3815" x2="8268" y2="8432">
   <stop offset="0" style="stop-opacity:1; stop-color:#67E2A1"/>
   <stop offset="0.988235" style="stop-opacity:1; stop-color:#4F74B5"/>
   <stop offset="1" style="stop-opacity:1; stop-color:#4F74B5"/>
  </linearGradient>
  <linearGradient id="id1" gradientUnits="userSpaceOnUse" xlink:href="#id0" x1="8892" y1="2613" x2="10001" y2="2613">
  </linearGradient>
  <linearGradient id="id2" gradientUnits="userSpaceOnUse" xlink:href="#id0" x1="7953" y1="9589" x2="8620" y2="9589">
  </linearGradient>
  <linearGradient id="id3" gradientUnits="userSpaceOnUse" xlink:href="#id0" x1="6082" y1="2787" x2="7051" y2="9245">
  </linearGradient>
  <linearGradient id="id4" gradientUnits="userSpaceOnUse" xlink:href="#id0" x1="3209" y1="5798" x2="8563" y2="5798">
  </linearGradient>
  <linearGradient id="id5" gradientUnits="userSpaceOnUse" xlink:href="#id0" x1="3135" y1="2613" x2="3663" y2="2613">
  </linearGradient>
 </defs>
 <g id="__x0023_Layer_x0020_1">
  <metadata id="CorelCorpID_0Corel-Layer"/>
  <path class="fil0" d="M7006 3955l1382 2394c498,862 -124,1939 -1120,1939l-2764 0c-995,0 -1617,-1077 -1120,-1939l1382 -2394c498,-862 1742,-862 2239,0z"/>
  <path class="fil1" d="M9111 4904l-873 3257c-314,1173 -1780,1565 -2638,707l-2384 -2384c-858,-858 -466,-2324 707,-2638l3257 -873c1173,-314 2245,759 1931,1931z"/>
  <path class="fil2" d="M9118 6817l-2637 2100c-950,756 -2362,201 -2542,-1000l-500 -3334c-180,-1200 1007,-2146 2137,-1702l3138 1234c1130,444 1355,1945 405,2701z"/>
  <g id="_1682185714864">
   <path class="fil3" d="M6130 2391c-54,-13 -108,-26 -163,-39 16,27 32,54 48,81 -17,-5 -34,-10 -50,-15 18,20 30,45 34,71 -11,-2 -21,-3 -32,-5 17,30 34,61 52,91 -13,-3 -26,-7 -39,-10 12,41 24,82 36,123 -16,-10 -31,-20 -47,-30 52,122 69,259 51,390 61,-52 151,-48 229,-32 78,16 159,41 237,22 99,-24 171,-122 180,-223 9,-102 -39,-203 -112,-274 -127,-123 -312,-128 -454,-228 9,26 21,51 32,77z"/>
   <g>
    <path class="fil4" d="M5004 7341c0,0 10,1069 -15,1159 -25,91 -127,276 -137,382 -10,107 -108,1461 -101,1563 7,102 61,142 78,131 18,-10 286,-130 286,-130 0,0 -18,-260 20,-461 39,-201 153,-560 153,-560 0,0 135,-336 128,-512 -7,-177 35,-280 35,-280 0,0 183,-1049 190,-1149 0,0 -587,-140 -637,-143z"/>
   </g>
   <g>
    <path class="fil5" d="M5252 9544c-27,-2 -63,-3 -100,-4 -73,-1 -157,-9 -226,-50 -31,-18 -76,-29 -116,-34 -30,422 -63,929 -59,990 7,102 61,142 78,131 18,-10 286,-130 286,-130 0,0 -18,-260 20,-461 25,-128 80,-320 116,-442z"/>
   </g>
   <g>
    <path class="fil6" d="M5623 7613c-17,-6 -34,-10 -51,-14 -191,-43 -387,-28 -567,38 0,81 0,173 0,265 10,5 21,10 31,15 96,45 193,89 289,134 2,128 16,263 17,390 0,9 0,19 -4,27 -15,30 -60,14 -92,3 -71,-25 -157,3 -199,66 75,-12 164,-19 216,38 43,47 40,119 34,183 -4,47 -12,99 -51,125 -54,36 -139,0 -184,46 61,3 117,56 121,118 2,31 -7,62 -11,94 -9,72 13,145 9,218 -3,67 -28,131 -47,196 -90,294 -88,605 -63,914 25,-11 42,-19 42,-19 0,0 -18,-260 20,-461 39,-201 153,-560 153,-560 0,0 135,-336 128,-512 -7,-177 35,-280 35,-280 0,0 125,-716 173,-1021z"/>
   </g>
   <g>
    <path class="fil4" d="M5969 7633c0,0 -69,917 -26,1057 0,0 -3,225 -28,282 -25,56 -38,131 -44,206 -6,75 -3,410 0,583 3,173 -73,438 -90,502 -18,64 -37,165 -8,181 29,16 315,104 315,104 0,0 62,-294 76,-353 14,-59 164,-646 194,-731 30,-85 122,-378 110,-524 -12,-147 -88,-293 -86,-338 2,-45 208,-1073 208,-1073l-620 106z"/>
   </g>
   <g>
    <path class="fil5" d="M5869 9586c1,65 1,126 2,174 3,173 -73,438 -90,502 -18,64 -37,165 -8,181 29,16 315,104 315,104 0,0 62,-294 76,-353 10,-42 87,-344 142,-549 -143,3 -311,-28 -436,-59z"/>
   </g>
   <g>
    <path class="fil6" d="M6542 7684c-108,-20 -219,-17 -327,1 -91,15 -175,38 -255,69 -6,84 -13,203 -19,328 106,29 215,50 325,62 -49,121 -38,277 17,395 -73,5 -146,1 -218,-13 -11,15 -17,35 -16,54 56,-20 121,0 165,40 44,40 69,97 83,155 14,59 19,122 -3,178 -22,56 -75,103 -136,104 56,3 72,78 70,134 -16,449 -117,895 -295,1307 78,25 155,49 155,49 0,0 62,-294 76,-353 14,-59 164,-646 194,-731 30,-85 122,-378 110,-524 -12,-147 -88,-293 -86,-338 2,-34 118,-623 176,-913 -5,-1 -9,-2 -14,-3z"/>
   </g>
   <g>
    <path class="fil7" d="M5988 10392c0,0 -85,-67 -184,-46 -99,21 -128,72 -134,94 -6,22 6,89 6,89 0,0 20,61 -1,88 -21,27 -230,323 -280,386 -50,63 -99,151 -25,227 74,76 295,121 385,77 90,-44 174,-70 201,-181 0,0 7,-130 26,-152 20,-22 86,-109 105,-157 0,0 42,-417 -6,-419 -47,-2 -93,-7 -93,-7z"/>
   </g>
   <g>
    <path class="fil8" d="M6093 10743c-21,34 -102,164 -137,205 -38,42 -27,82 -38,125 -11,43 -162,145 -242,162 -80,17 -173,-4 -255,-41 -49,-22 -52,-101 -46,-162 -41,59 -68,133 -4,198 74,76 295,121 385,77 90,-44 174,-70 201,-181 0,0 7,-130 26,-152 20,-22 86,-109 105,-157 0,0 3,-30 6,-74z"/>
   </g>
   <g>
    <path class="fil9" d="M6007 10631c0,0 31,-141 40,-235 -33,-2 -59,-5 -59,-5 0,0 -85,-67 -184,-46 -99,21 -128,72 -134,94 -6,22 6,89 6,89 0,0 20,61 -1,88 -14,18 -107,149 -184,256 49,49 168,161 219,134 65,-35 157,-203 179,-230 21,-27 119,-145 119,-145z"/>
   </g>
   <g>
    <path class="fil7" d="M5029 10349c0,0 -85,-67 -184,-46 -99,21 -128,72 -134,94 -6,22 6,89 6,89 0,0 20,61 -1,88 -21,27 -230,323 -280,386 -50,63 -99,151 -25,227 74,76 295,121 385,77 90,-44 174,-70 201,-181 0,0 7,-130 26,-152 20,-22 86,-109 105,-157 0,0 42,-417 -6,-419 -47,-2 -93,-7 -93,-7z"/>
   </g>
   <g>
    <path class="fil8" d="M5134 10700c-21,34 -102,164 -137,205 -38,42 -27,82 -38,125 -11,43 -162,145 -242,162 -80,17 -173,-4 -255,-41 -49,-22 -52,-101 -46,-162 -41,59 -68,133 -4,198 74,76 295,121 385,77 90,-44 174,-70 201,-181 0,0 7,-130 26,-152 20,-22 86,-109 105,-157 0,0 3,-30 6,-74z"/>
   </g>
   <g>
    <path class="fil9" d="M5048 10589c0,0 31,-141 40,-235 -33,-2 -59,-5 -59,-5 0,0 -85,-67 -184,-46 -99,21 -128,72 -134,94 -6,22 6,89 6,89 0,0 20,61 -1,88 -14,18 -107,149 -184,256 49,49 168,161 219,134 65,-35 157,-203 179,-230 21,-27 119,-145 119,-145z"/>
   </g>
   <g>
    <path class="fil10" d="M6615 3487c-3,0 -5,1 -5,1 0,0 63,2 5,-1z"/>
   </g>
   <g>
    <path class="fil11" d="M7154 4581c-15,-56 -48,-162 -48,-162 0,0 -108,-188 -171,-299 -63,-112 -207,-507 -205,-564 3,-56 -30,-107 -68,-83 -13,8 -37,12 -48,14 58,2 -5,1 -5,1 0,0 2,0 5,-1 -21,-1 -58,-2 -120,-4 -232,-8 -342,-81 -402,-83 -60,-3 -151,21 -170,25 -19,4 -125,-155 -188,-158 -64,-3 -64,-3 -64,-3 0,0 -65,-331 -114,-466 -1,1 -1,3 -2,4 -88,232 -203,447 -326,660 11,99 78,304 129,329 0,0 -43,315 -36,417 7,102 76,184 76,184 0,0 -17,134 -44,235 -27,100 -29,275 -56,369 -27,95 -57,262 -5,366 52,104 108,230 107,247 0,5 -3,18 -6,35 2,0 4,0 5,0 5,5 9,10 14,15 14,5 33,-3 47,2l-1 14c14,5 24,-4 42,16 5,5 19,-4 28,1l-1 14c9,5 19,-4 28,1l-1 14c23,10 42,21 70,17 5,0 9,10 14,15 14,1 28,-3 42,2l-1 14c19,6 38,-3 57,3l-1 14c23,10 43,-8 70,13 14,10 42,2 51,12 23,15 42,7 61,12 5,5 9,10 14,15 19,6 38,-3 57,3l-1 14c47,16 90,4 141,11 226,41 451,41 673,-16 -2,-2 -5,-3 -7,-5 0,0 37,-201 57,-273 20,-72 60,-206 91,-266 31,-61 78,-498 78,-498 0,0 145,-170 130,-226z"/>
   </g>
   <g>
    <path class="fil12" d="M6859 5557c21,-74 58,-196 87,-252 31,-61 78,-498 78,-498 0,0 145,-170 130,-226 -15,-56 -48,-162 -48,-162 0,0 -108,-188 -171,-299 -63,-112 -207,-507 -205,-564 3,-56 -30,-107 -68,-83 -13,8 -37,12 -48,14 58,2 -5,1 -5,1 0,0 2,0 5,-1 -21,-1 -58,-2 -120,-4 -232,-8 -342,-81 -402,-83 -39,-2 -92,8 -128,16 60,191 192,360 366,460 -4,-26 -7,-53 -11,-79 44,39 87,77 131,116 -26,-45 -52,-89 -78,-134 47,37 106,60 165,63 -27,-40 -55,-81 -82,-121 18,22 49,32 78,34 32,2 66,-1 96,9 57,18 90,77 113,132 116,284 93,621 -61,887 -42,73 -95,142 -165,188 -120,80 -280,85 -413,31 93,82 204,169 326,147 69,-12 127,-58 179,-104 159,-141 300,-304 400,-491 -20,99 -40,199 -61,298 -33,163 -73,338 -201,445 58,-50 116,-100 173,-151 -37,99 -46,203 -54,308 -3,35 -5,69 -8,104z"/>
   </g>
   <g>
    <path class="fil12" d="M6415 5689c-196,25 -402,-61 -522,-217 87,47 180,87 278,100 98,13 203,-4 283,-62 166,-121 177,-369 314,-522 -83,63 -140,154 -208,233 -68,79 -157,152 -262,155 -93,3 -178,-50 -255,-102 -96,-66 -193,-140 -241,-246 -43,-95 -40,-203 -56,-306 -15,-102 -50,-200 -59,-303 -20,-230 86,-450 189,-656 -70,86 -141,171 -211,257 70,-136 125,-279 165,-426 -42,72 -99,134 -167,181 45,-95 91,-193 104,-298 9,-71 -1,-147 -32,-210 0,0 -1,0 -1,0 -64,-3 -64,-3 -64,-3 0,0 -8,-39 -20,-96 -65,-46 -146,-66 -229,-64 -60,121 -125,240 -193,357 11,99 78,304 129,329 0,0 -43,315 -36,417 7,102 76,184 76,184 0,0 -17,134 -44,235 -27,100 -29,275 -56,369 -27,95 -57,262 -5,366 52,104 108,230 107,247 0,5 -3,18 -6,35 2,0 4,0 5,0 5,5 9,10 14,15 14,5 33,-3 47,2l-1 14c14,5 24,-4 42,16 5,5 19,-4 28,1l-1 14c9,5 19,-4 28,1l-1 14c23,10 42,21 70,17 5,0 9,10 14,15 14,1 28,-3 42,2l-1 14c19,6 38,-3 57,3l-1 14c23,10 43,-8 70,13 14,10 42,2 51,12 23,15 42,7 61,12 5,5 9,10 14,15 19,6 38,-3 57,3l-1 14c47,16 90,4 141,11 119,22 238,32 356,28 67,-27 133,-57 186,-104 122,-108 160,-280 191,-440 -77,181 -255,316 -451,341z"/>
   </g>
   <g>
    <path class="fil13" d="M6625 3485c-4,1 -7,1 -10,2 -21,-1 -58,-2 -120,-4 -232,-8 -342,-81 -402,-83 -30,-1 -67,4 -100,10 51,69 281,379 328,379 53,0 143,-69 226,-179 44,-59 67,-99 78,-124z"/>
   </g>
   <g>
    <path class="fil14" d="M6048 3278l-6 132c0,0 174,135 218,160 44,24 263,-13 293,-60 30,-46 100,-306 100,-306l-11 -116 -594 189z"/>
   </g>
   <g>
    <path class="fil6" d="M6048 3278l-3 59c22,31 49,59 80,81 70,50 161,70 244,49 -7,37 -18,75 -34,110 82,-5 196,-34 217,-66 30,-46 100,-306 100,-306l-11 -116 -594 189z"/>
   </g>
   <g>
    <path class="fil15" d="M6246 2546c0,0 -167,118 -186,186 -19,68 -30,127 -36,177 -6,51 -10,174 -17,199 -7,25 2,184 43,214 41,30 84,91 222,81 138,-9 252,-54 282,-77 93,-73 177,-188 178,-222 2,-34 -3,-94 -5,-228 -2,-134 -26,-233 -144,-265 -69,-19 -167,-97 -337,-66z"/>
   </g>
   <path class="fil3" d="M6061 2642c-31,60 -39,131 -22,196 23,-38 45,-75 68,-113 0,39 0,77 -1,116 14,-58 44,-112 86,-155 -1,24 -3,49 -4,73 18,-28 36,-56 54,-84 14,37 28,74 42,111 1,-32 3,-63 4,-94 51,83 119,155 199,211 -14,-41 -28,-83 -42,-124 41,53 107,86 173,86 -29,-67 -58,-134 -87,-201 -20,-46 -40,-92 -73,-129 -33,-37 -81,-64 -130,-60 -54,-29 -129,-24 -182,7 -53,31 -59,105 -87,159z"/>
   <g>
    <path class="fil6" d="M6728 2934c-34,-27 -74,-44 -115,-39 -8,152 -77,299 -189,402 -49,45 -107,82 -168,108 5,0 10,0 16,-1 138,-9 252,-54 282,-77 93,-73 177,-188 178,-222 1,-29 -2,-76 -4,-171z"/>
   </g>
   <g>
    <path class="fil11" d="M6802 5821c-68,87 -252,-18 -360,5 -77,17 -156,25 -236,26 -123,1 -245,-19 -367,-38 -118,-18 -235,-37 -353,-55 -44,-7 -76,-9 -95,-50 -60,109 -130,212 -210,307 -44,52 -92,105 -106,172 -11,56 3,116 -16,170 -8,23 -23,44 -32,67 -16,43 -12,91 -11,137 6,223 -77,446 -226,612 44,55 49,134 32,202 -17,69 -54,130 -87,193 -6,10 -11,22 -10,33 2,14 13,24 24,32 248,202 580,261 895,313 41,-56 82,-112 122,-168 23,77 45,155 66,233 334,-70 690,114 1011,0 -65,-40 -57,-135 -41,-209 22,-106 45,-211 67,-317 5,-24 10,-48 21,-70 20,-40 58,-68 95,-94 -47,-33 -54,-99 -56,-156 -10,-279 -10,-558 1,-836 4,-110 6,-232 -66,-314 11,-5 19,-15 20,-26 -71,-84 -126,-182 -161,-286l77 119z"/>
   </g>
   <path class="fil12" d="M5115 7641c73,35 154,51 235,46 -21,-42 -79,-46 -117,-73 -42,-30 -55,-86 -64,-137 -14,-75 -28,-149 -43,-224 106,86 213,171 319,257 29,23 71,46 99,23 11,-10 16,-25 21,-39 39,-124 70,-250 95,-378 -50,86 -96,174 -137,265 -123,-209 -227,-429 -309,-658 -9,-25 -17,-50 -17,-76 1,-27 12,-53 22,-78 67,-164 110,-338 125,-515 38,-46 99,-72 158,-67 -40,-38 -85,-72 -133,-99 153,-5 306,-10 459,-15 -38,-49 -115,-68 -181,-89 -54,-8 -107,-17 -161,-25 -44,-7 -76,-9 -95,-50 -60,109 -130,212 -210,307 -44,52 -92,105 -106,172 -11,56 3,116 -16,170 -8,23 -23,44 -32,67 -16,43 -12,91 -11,137 6,223 -77,446 -226,612 44,55 49,134 32,202 -17,69 -54,130 -87,193 -6,10 -11,22 -10,33 2,14 13,24 24,32 205,167 467,236 730,285 -126,-87 -247,-180 -365,-277z"/>
   <path class="fil12" d="M5853 7800c-4,-28 6,-55 10,-82 15,-100 -47,-202 -24,-300 12,-55 49,-100 68,-153 19,-53 11,-124 -40,-147 -3,-18 23,-25 30,-42 7,-16 -5,-32 -14,-47 -28,-45 -32,-100 -33,-153 -4,-113 -3,-226 2,-338 -39,185 -67,372 -82,561 -1,17 -3,35 3,52 5,15 15,28 21,43 23,58 -26,117 -50,175 -15,36 -20,76 -25,115 -15,111 -29,222 -44,333 -6,48 -14,89 -32,130 2,0 3,1 5,1 41,-56 82,-112 122,-168 23,77 45,155 66,233 91,-19 184,-19 277,-12 -42,-36 -94,-61 -144,-86 -50,-24 -107,-58 -114,-114z"/>
   <g>
    <g>
     <path class="fil12" d="M6467 7924c-58,46 -137,51 -211,60 -38,4 -76,10 -113,18 238,23 478,88 702,9 -65,-40 -57,-135 -41,-209 22,-106 45,-211 67,-317 5,-24 10,-48 21,-70 20,-40 58,-68 95,-94 -47,-33 -54,-99 -56,-156 -10,-279 -10,-558 1,-836 4,-110 6,-232 -66,-314 11,-5 19,-15 20,-26 -39,-46 -73,-97 -102,-150 -42,28 -107,18 -173,4 -143,50 -306,38 -458,8 -89,-3 -178,-16 -266,-29 237,174 536,263 830,247 -91,40 -181,79 -272,119 122,-13 243,-27 364,-40 -89,59 -182,110 -279,155 79,-3 158,-7 237,-10 -38,252 -49,507 -35,761 2,39 5,78 -6,116 -11,38 -36,70 -61,101 -85,105 -180,202 -281,291 -35,31 -73,61 -118,69 -39,7 -79,-4 -116,-18 -117,-44 -217,-122 -315,-199 74,77 148,154 222,231 49,51 103,105 173,113 55,7 109,-17 160,-40 74,-34 148,-67 222,-101 -49,104 -52,237 -142,308z"/>
     <path class="fil12" d="M6802 5821l-40 -61c-4,3 -8,6 -12,8 10,24 21,47 34,70 7,-5 13,-10 18,-17z"/>
    </g>
   </g>
   <g>
    <path class="fil13" d="M6798 5844c0,0 17,-91 34,-173 -925,265 -1431,-64 -1431,-64 -1,17 -29,151 -29,151 743,360 1427,86 1427,86z"/>
   </g>
   <g>
    <path class="fil4" d="M5983 1481c8,21 7,85 5,105 -3,21 -26,125 -2,163 25,39 72,63 107,168 35,105 210,738 263,848 53,110 185,279 185,279 0,0 66,106 74,148 8,43 87,202 86,233 -1,15 -3,32 -6,44 22,11 37,47 35,86 -3,56 142,452 205,564 47,84 120,212 153,269 12,-33 24,-77 28,-130 9,-116 -30,-245 45,-332 75,-87 148,-293 -54,-565 0,0 -119,-201 -192,-324 -73,-123 -63,-198 -62,-213 1,-15 -70,-255 -181,-440 -111,-185 -393,-596 -393,-596 0,0 -2,-40 -37,-94 -35,-54 30,-459 17,-608 -13,-148 -4,-200 -34,-202 -30,-1 -40,46 -41,88 -2,42 -2,51 -2,51 0,0 -7,-62 -16,-73 -10,-11 -66,-9 -59,57 0,0 9,135 11,206 0,0 -41,-123 -65,-137 -24,-13 -64,15 -65,30 -1,15 24,104 27,118 3,13 11,85 18,91 7,6 36,79 36,79 0,0 -24,-1 -50,-27 -25,-26 -73,-97 -93,-98 -21,-1 -57,52 -25,98 32,46 73,91 81,112z"/>
   </g>
   <g>
    <path class="fil6" d="M7048 3929c-185,-245 -258,-554 -326,-854 -12,-54 -20,-123 26,-156 -28,3 -56,7 -83,10 19,-24 39,-48 58,-72 -103,2 -198,-60 -261,-141 -63,-81 -99,-179 -135,-275 -77,-208 -132,-418 -209,-627 22,-27 43,-54 65,-81 -26,20 -58,31 -90,32 14,-14 28,-28 42,-42 -41,14 -85,-17 -103,-56 -18,-39 -16,-84 -15,-127 1,-43 1,-88 -21,-125 -20,-34 -55,-56 -83,-83 -7,-7 -15,-15 -21,-24 -5,18 -4,39 10,59 32,46 73,91 81,112 8,21 7,85 5,105 -3,21 -26,125 -2,163 25,39 72,63 107,168 35,105 210,738 263,848 53,110 185,279 185,279 0,0 66,106 74,148 8,43 87,202 86,233 -1,15 -3,32 -6,44 22,11 37,47 35,86 -3,56 142,452 205,564 39,69 95,167 132,232 26,-161 -8,-332 -102,-466 28,14 55,29 83,43z"/>
   </g>
   <g>
    <path class="fil4" d="M5671 3264c0,0 -86,-439 -135,-513 0,0 -17,-215 -26,-249 -10,-34 -54,-310 -76,-409 -22,-99 -57,-408 -34,-583 2,-19 5,-37 7,-56 37,-37 68,-81 90,-128 35,-73 50,-154 65,-234 9,-50 13,-99 20,-149 3,-23 -24,-37 -41,-21 -19,18 -35,41 -46,65 -19,41 -30,86 -48,128l0 0c-6,13 -25,10 -26,-5 -1,-13 -2,-23 -4,-32 -4,-21 -7,-70 -9,-127 6,-117 12,-235 17,-352 1,-18 2,-37 -11,-51 -7,-8 -17,-12 -26,-9 -16,4 -20,23 -23,39 -14,106 -27,212 -41,318 -3,21 -29,30 -43,15 -9,-9 -11,-22 -13,-35 -15,-109 -19,-219 -12,-328 1,-13 2,-27 -2,-40 -4,-13 -15,-25 -28,-26 -13,-1 -25,8 -31,19 -6,11 -8,24 -10,37 -14,114 -22,228 -22,343 0,26 -21,43 -47,37 -4,-1 -7,-2 -9,-4 -9,-7 -14,-19 -16,-30l-44 -303c-2,-10 -9,-20 -19,-22 -21,-5 -31,22 -32,43 -7,116 2,234 28,347 7,30 -31,52 -52,29 -1,-1 -1,-1 -2,-2 -14,-18 -16,-41 -21,-63 -7,-33 -22,-64 -42,-92 -19,-25 -59,-8 -54,23 7,49 25,97 46,143 31,69 70,135 93,207 2,7 4,14 7,21 9,49 26,123 37,148 14,31 97,137 95,162 -1,25 -16,370 -16,370 0,0 -31,611 15,770 0,0 44,118 49,175 5,57 56,513 49,586 -7,73 71,336 130,364 0,0 -43,315 -36,417 7,102 76,184 76,184 46,-34 87,-242 87,-242 0,0 145,-470 210,-663 65,-192 -24,-223 -24,-223z"/>
   </g>
   <g>
    <path class="fil6" d="M5695 3486c55,-164 -1,-210 -19,-220 2,126 -24,249 -79,367 -6,-45 -12,-90 -18,-135 -47,18 -101,-5 -135,-42 -34,-37 -52,-85 -69,-132 -28,-77 -52,-153 -45,-235 8,-99 3,-199 -16,-296 51,-12 99,-34 141,-65 -52,-5 -104,-9 -156,-14 25,-13 49,-26 74,-38 -78,-15 -137,-85 -163,-160 -26,-75 -25,-157 -24,-237 4,-247 -8,-499 -4,-746 32,-13 64,-26 96,-39 -19,-4 -39,-8 -58,-12 33,-16 65,-32 98,-49 -76,20 -157,-19 -209,-78 -52,-59 -80,-134 -108,-207 -13,-35 -26,-70 -39,-104 -1,-3 -1,-7 -2,-10 -51,-61 -83,-136 -93,-214 -7,6 -12,16 -10,28 7,49 25,97 46,143 31,69 70,135 93,207 2,7 4,14 7,21 9,49 26,123 37,148 14,31 97,137 95,162 -1,25 -16,370 -16,370 0,0 -31,611 15,770 0,0 44,118 49,175 5,57 56,513 49,586 -7,73 71,336 130,364 0,0 -43,315 -36,417 7,102 76,184 76,184 46,-34 87,-242 87,-242 0,0 145,-470 210,-663z"/>
   </g>
   <g>
    <path class="fil11" d="M5593 5657c-162,-28 -303,-156 -346,-315 -20,-74 -21,-151 -21,-228 0,-60 0,-119 -1,-179 0,-55 0,-110 -1,-165 0,-35 0,-71 11,-105 8,-25 22,-48 32,-72 24,-58 39,-124 23,-182 -6,-21 2,-43 20,-56 89,-64 146,-168 188,-271 48,-116 86,-238 165,-335 -13,297 -16,592 52,881 32,136 83,274 58,411 -16,89 -64,171 -78,261 -10,62 -3,125 -12,187 -9,62 -36,141 -92,169z"/>
   </g>
   <g>
    <path class="fil12" d="M5593 5657c-162,-28 -303,-156 -346,-315 -20,-74 -21,-151 -21,-228 0,-60 0,-119 -1,-179 0,-55 0,-110 -1,-165 0,-35 0,-71 11,-105 8,-25 22,-48 32,-72 24,-58 39,-124 23,-182 -6,-21 2,-43 20,-56 89,-64 146,-168 188,-271 48,-116 86,-238 165,-335 -13,297 -16,592 52,881 32,136 83,274 58,411 -16,89 -64,171 -78,261 -10,62 -3,125 -12,187 -9,62 -36,141 -92,169z"/>
   </g>
   <g>
    <path class="fil12" d="M5843 4526c39,137 114,272 237,343 102,59 231,67 339,22 108,-45 193,-143 223,-256 -92,139 -283,213 -448,187 -165,-26 -307,-135 -352,-295z"/>
   </g>
  </g>
  <path class="fil16" d="M10001 2613c0,306 -248,555 -555,555 -306,0 -555,-248 -555,-555 0,-306 248,-555 555,-555 306,0 555,248 555,555z"/>
  <path class="fil17" d="M3663 2613c0,146 -118,264 -264,264 -146,0 -264,-118 -264,-264 0,-146 118,-264 264,-264 146,0 264,118 264,264z"/>
  <path class="fil18" d="M8620 9589c0,184 -149,334 -334,334 -184,0 -334,-149 -334,-334 0,-184 149,-334 334,-334 184,0 334,149 334,334z"/>
  <g id="_1682185684624">
   <g>
    <path class="fil19" d="M4531 648c0,293 -238,531 -531,531 -293,0 -531,-238 -531,-531 0,-293 238,-531 531,-531 293,0 531,238 531,531z"/>
   </g>
   <g>
    <path class="fil20" d="M4530 690c1,-14 2,-28 2,-42 0,-2 0,-4 0,-7 -145,56 -282,84 -406,95 1,-24 1,-47 1,-70 0,0 1,0 1,0 36,0 68,-11 96,-32 97,-74 151,-182 179,-260 7,-18 12,-36 17,-54 -11,-14 -23,-28 -36,-41 -6,25 -14,52 -24,80 -26,72 -76,172 -164,239 -20,15 -43,23 -70,22 -3,-153 -20,-281 -50,-383 -15,-52 -33,-91 -49,-120 -9,0 -17,-1 -26,-1 -9,0 -18,0 -27,1 18,27 40,68 59,133 23,76 43,192 47,364 -148,-41 -334,-247 -430,-365 -11,10 -22,21 -33,31 102,125 300,343 464,380 0,25 0,52 -1,79 -140,8 -261,-5 -356,-24 -109,-21 -196,-52 -255,-77 0,3 0,6 0,9 0,14 1,27 2,40 60,24 142,51 243,71 94,19 189,28 285,28 27,0 53,-1 80,-2 -1,19 -2,39 -3,59 -63,12 -150,46 -260,103 -68,35 -130,71 -170,96 12,11 24,21 37,30 108,-64 281,-158 391,-182 -6,86 -15,181 -28,286 16,-1 31,-3 46,-6 12,-101 22,-197 27,-286 7,0 13,0 19,2 123,24 209,161 211,163 12,-10 23,-21 33,-32 -22,-32 -109,-151 -235,-175 -8,-1 -16,-2 -25,-2 1,-20 2,-39 3,-58 136,-12 273,-43 406,-92z"/>
   </g>
   <g>
    <path class="fil21" d="M4000 117c-24,0 -48,2 -72,5 259,35 459,257 459,526 0,269 -200,491 -459,526 24,3 48,5 72,5 293,0 531,-238 531,-531 0,-293 -238,-531 -531,-531z"/>
   </g>
  </g>
 </g>
</svg>
