<?xml version="1.0" encoding="UTF-8"?>
<!DOCTYPE svg PUBLIC "-//W3C//DTD SVG 1.1//EN" "http://www.w3.org/Graphics/SVG/1.1/DTD/svg11.dtd">
<!-- Creator: CorelDRAW X7 -->
<svg xmlns="http://www.w3.org/2000/svg" xml:space="preserve" width="2550px" height="2550px" version="1.1" style="shape-rendering:geometricPrecision; text-rendering:geometricPrecision; image-rendering:optimizeQuality; fill-rule:evenodd; clip-rule:evenodd"
viewBox="0 0 2550 2550"
 xmlns:xlink="http://www.w3.org/1999/xlink">
 <defs>
  <style type="text/css">
   <![CDATA[
    .fil19 {fill:#202635}
    .fil23 {fill:#3A2626}
    .fil18 {fill:#40475E}
    .fil32 {fill:#495063}
    .fil28 {fill:#4C3535}
    .fil22 {fill:#634949}
    .fil27 {fill:#896767}
    .fil24 {fill:#9B3232}
    .fil25 {fill:#B75571}
    .fil15 {fill:#BF3030}
    .fil31 {fill:#BF5543}
    .fil16 {fill:#C96861}
    .fil13 {fill:#D33737}
    .fil33 {fill:#D83A3A}
    .fil30 {fill:#DB6440}
    .fil14 {fill:#DB7965}
    .fil11 {fill:#DEE2DC}
    .fil10 {fill:#E28061}
    .fil12 {fill:#ED4848}
    .fil17 {fill:#EF9178}
    .fil29 {fill:#F27A4C}
    .fil6 {fill:#F2F6EF}
    .fil26 {fill:#F7F2ED}
    .fil7 {fill:#FF5252}
    .fil34 {fill:#FF8383}
    .fil8 {fill:#FFA585}
    .fil9 {fill:#FFBFAB}
    .fil21 {fill:#FFC037}
    .fil20 {fill:white}
    .fil3 {fill:url(#id0);fill-rule:nonzero;fill-opacity:0.400000}
    .fil5 {fill:url(#id1);fill-rule:nonzero;fill-opacity:0.400000}
    .fil0 {fill:url(#id2);fill-rule:nonzero;fill-opacity:0.400000}
    .fil1 {fill:url(#id3);fill-rule:nonzero;fill-opacity:0.400000}
    .fil2 {fill:url(#id4);fill-rule:nonzero;fill-opacity:0.400000}
    .fil4 {fill:url(#id5);fill-rule:nonzero;fill-opacity:0.400000}
   ]]>
  </style>
  <linearGradient id="id0" gradientUnits="userSpaceOnUse" x1="2147" y1="217" x2="2479" y2="217">
   <stop offset="0" style="stop-opacity:1; stop-color:#00E39F"/>
   <stop offset="0.988235" style="stop-opacity:1; stop-color:#3475B9"/>
   <stop offset="1" style="stop-opacity:1; stop-color:#3475B9"/>
  </linearGradient>
  <linearGradient id="id1" gradientUnits="userSpaceOnUse" xlink:href="#id0" x1="1866" y1="2346" x2="2066" y2="2346">
  </linearGradient>
  <linearGradient id="id2" gradientUnits="userSpaceOnUse" xlink:href="#id0" x1="444" y1="1189" x2="2048" y2="1189">
  </linearGradient>
  <linearGradient id="id3" gradientUnits="userSpaceOnUse" xlink:href="#id0" x1="576" y1="584" x2="1960" y2="1993">
  </linearGradient>
  <linearGradient id="id4" gradientUnits="userSpaceOnUse" xlink:href="#id0" x1="1305" y1="270" x2="1595" y2="2241">
  </linearGradient>
  <linearGradient id="id5" gradientUnits="userSpaceOnUse" xlink:href="#id0" x1="422" y1="217" x2="580" y2="217">
  </linearGradient>
 </defs>
 <g id="Layer_x0020_1">
  <metadata id="CorelCorpID_0Corel-Layer"/>
  <g id="_1682228991280">
   <g>
    <path class="fil0" d="M1582 627l414 731c149,263 -37,592 -335,592l-828 0c-298,0 -485,-329 -335,-592l414 -731c149,-263 522,-263 671,0z"/>
    <path class="fil1" d="M2212 916l-261 994c-94,358 -533,478 -791,216l-714 -728c-257,-262 -140,-709 212,-805l976 -266c351,-96 673,232 579,589z"/>
    <path class="fil2" d="M2215 1500l-790 641c-285,231 -708,61 -762,-305l-150 -1018c-54,-366 302,-655 640,-519l940 377c339,136 406,594 121,824z"/>
    <path class="fil3" d="M2479 217c0,93 -74,169 -166,169 -92,0 -166,-76 -166,-169 0,-94 74,-169 166,-169 92,0 166,76 166,169z"/>
    <path class="fil4" d="M580 217c0,45 -35,81 -79,81 -44,0 -79,-36 -79,-81 0,-45 35,-81 79,-81 44,0 79,36 79,81z"/>
    <path class="fil5" d="M2066 2346c0,56 -45,102 -100,102 -55,0 -100,-46 -100,-102 0,-56 45,-102 100,-102 55,0 100,46 100,102z"/>
   </g>
   <g>
    <g>
     <circle class="fil6" transform="matrix(0.0871182 -0.38086 0.373929 0.0887331 220.712 2132.36)" r="188"/>
     <circle class="fil6" transform="matrix(0.0871182 -0.38086 0.373929 0.0887331 150.835 2369.72)" r="128"/>
     <path class="fil6" d="M288 2160c-54,136 -54,136 -91,229l-94 -29c19,-98 19,-98 48,-242l137 42z"/>
    </g>
    <g>
     <circle class="fil7" transform="matrix(0.144634 -0.362245 0.355653 0.147315 258.981 2154.54)" r="184"/>
     <circle class="fil7" transform="matrix(0.144634 -0.362245 0.355653 0.147315 155.547 2373.37)" r="126"/>
     <path class="fil7" d="M320 2192c-73,123 -73,123 -123,207l-87 -43c34,-92 34,-92 83,-227l127 62z"/>
    </g>
    <circle class="fil7" transform="matrix(0.144634 -0.362245 0.355653 0.147315 263.036 2194.65)" r="167"/>
    <path class="fil7" d="M113 2351c40,-80 40,-80 94,-186l109 68c-68,96 -68,96 -120,169l-82 -51z"/>
    <path class="fil6" d="M197 2242c-4,0 -9,-3 -10,-7l-26 -64c-2,-6 0,-12 6,-15 6,-2 12,0 15,6l26 64c2,6 0,12 -6,15 -1,1 -3,1 -4,1z"/>
    <path class="fil6" d="M160 2281c-4,0 -9,-3 -10,-7l-18 -44c-2,-6 0,-12 6,-15 6,-2 12,0 15,6l18 44c2,6 0,12 -6,15 -1,1 -3,1 -4,1z"/>
   </g>
   <g>
    <path class="fil8" d="M683 2014l0 0c48,-46 48,-46 95,-92l-92 -99c-45,44 -48,46 -89,87 -3,2 -7,4 -10,6 -31,-8 -88,15 -143,58 -24,19 -44,39 -59,58 -57,33 -109,63 -145,83 0,0 0,0 0,0 0,0 0,0 0,0l0 0c-14,8 -23,23 -23,41 0,26 21,47 46,47 7,0 13,-1 19,-4 84,-38 260,-116 382,-171 8,-3 14,-8 20,-14z"/>
    <path class="fil9" d="M560 1940c-11,5 -19,14 -19,20 1,7 10,9 21,4 11,-5 19,-14 19,-20 -1,-7 -10,-9 -21,-4z"/>
    <path class="fil10" d="M758 1901c-41,39 -43,42 -88,86l0 0c-6,6 -13,10 -20,14 -123,55 -298,133 -382,171 -6,3 -12,4 -19,4 -13,0 -25,-5 -33,-14 2,24 22,42 46,42 7,0 13,-1 19,-4 84,-38 260,-116 382,-171 8,-3 14,-8 20,-14l0 0c48,-46 48,-46 95,-92l-20 -21z"/>
    <path class="fil6" d="M365 2147c-28,-11 -39,-48 -26,-82 2,-4 3,-8 6,-11 -41,24 -78,45 -105,60 0,0 0,0 0,0 0,0 0,0 0,0l0 0c-14,8 -23,23 -23,41 0,26 21,47 46,47 7,0 13,-1 19,-4 28,-13 67,-30 110,-49 -8,1 -17,1 -25,-3z"/>
    <path class="fil11" d="M299 2191c8,-3 16,-7 25,-11 1,-1 3,-1 4,-2 18,-8 38,-17 59,-26 1,-1 2,-1 3,-2 -8,1 -17,1 -25,-3 -7,-3 -13,-7 -17,-12 -31,14 -59,26 -81,36 -6,3 -12,4 -19,4 -13,0 -25,-5 -33,-14 0,0 0,0 0,0 0,0 0,1 0,1 0,0 0,1 0,1 0,0 0,1 0,1 0,0 0,1 0,1 0,0 0,1 0,1 0,0 0,1 0,1 0,0 0,1 0,1 0,0 0,1 0,1 0,0 0,1 0,1 0,0 0,1 0,1 0,0 0,1 0,1 0,0 0,1 0,1 0,0 0,1 0,1 0,0 0,1 0,1 0,0 0,1 1,1 0,0 0,1 0,1 0,0 0,1 1,1 0,0 0,1 1,1 0,0 0,1 1,1 0,0 0,1 1,1 0,0 0,1 1,1 0,0 0,1 1,1 0,0 0,1 1,1 0,0 0,1 1,1 0,0 0,1 1,1 0,0 0,1 1,1 0,0 0,1 1,1 0,0 1,1 1,1 0,0 0,0 1,1 1,1 1,1 2,1 0,0 0,0 1,1 0,0 1,1 1,1 0,0 0,0 1,1 0,0 1,1 1,1 0,0 1,0 1,1 0,0 1,0 1,1 0,0 1,0 1,1 0,0 1,0 1,1 0,0 1,0 1,1 0,0 1,0 1,1 0,0 1,0 1,0 0,0 1,0 1,1 0,0 1,0 1,0 0,0 1,0 1,0 0,0 1,0 1,0 0,0 1,0 1,0 0,0 1,0 1,0 0,0 1,0 1,0 0,0 1,0 1,0 0,0 1,0 1,0 0,0 1,0 1,0 0,0 1,0 1,0 0,0 1,0 1,0 0,0 1,0 1,0 0,0 1,0 1,0 0,0 1,0 1,0 0,0 1,0 1,0 1,0 1,0 2,0 0,0 1,0 1,0 1,0 2,0 2,0 7,0 13,-1 19,-4 3,-1 5,-2 8,-4 3,-2 7,-3 11,-5z"/>
   </g>
   <g>
    <path class="fil12" d="M241 2256l0 0c-11,-17 -7,-40 9,-51l39 -27c16,-11 39,-7 50,10l0 0c11,17 7,40 -9,51l-39 27c-16,11 -39,7 -50,-10z"/>
    <path class="fil7" d="M250 2250l0 0c-11,-17 -7,-40 9,-51l39 -27c16,-11 39,-7 50,10l0 0c11,17 7,40 -9,51l-39 27c-16,11 -39,7 -50,-10z"/>
    <path class="fil13" d="M284 2290c-2,0 -3,0 -5,-1l-45 -26c-5,-3 -6,-9 -4,-13 3,-5 8,-6 13,-4l45 26c5,3 6,9 4,13 -2,3 -5,5 -8,5z"/>
    <path class="fil13" d="M257 2327c-2,0 -3,0 -5,-1l-45 -26c-5,-3 -6,-9 -4,-13 3,-5 8,-6 13,-4l45 26c5,3 6,9 4,13 -2,3 -5,5 -8,5z"/>
    <path class="fil13" d="M231 2363c-2,0 -3,0 -5,-1l-45 -26c-5,-3 -6,-9 -4,-13 3,-5 8,-6 13,-4l45 26c5,3 6,9 4,13 -2,3 -5,5 -8,5z"/>
   </g>
   <path class="fil8" d="M1487 1367l-188 -35 -39 -25c-16,-21 -35,-41 -57,-56 -35,-25 -71,-40 -97,-43l-22 -14c-18,-11 -41,-6 -52,12 -11,18 -6,42 12,53l51 32c13,15 30,31 50,45 39,28 84,54 114,61l6 4c2,1 4,2 5,3 0,0 0,0 0,0 1,0 1,1 2,1 0,0 0,0 1,0 1,0 1,0 2,1 0,0 1,0 1,0 0,0 1,0 1,0 0,0 1,0 1,0 0,0 0,0 0,0l195 36c2,0 5,1 7,1 18,0 34,-13 37,-32 4,-21 -10,-41 -30,-45z"/>
   <path class="fil14" d="M1484 1425c-2,0 -5,0 -7,-1l-195 -36c0,0 0,0 0,0 0,0 -1,0 -1,0 0,0 -1,0 -1,0 0,0 -1,0 -1,0 -1,0 -1,0 -2,-1 0,0 0,0 -1,0 -1,0 -1,0 -2,-1 0,0 0,0 0,0 -2,-1 -4,-2 -5,-3l-6 -4c-30,-7 -75,-33 -114,-61 -20,-14 -37,-30 -50,-45l-51 -32c-11,-7 -18,-20 -18,-33 -9,18 -4,40 13,51l51 32c13,15 30,31 50,45 39,28 84,54 114,61l6 4c2,1 4,2 5,3 0,0 0,0 0,0 1,0 1,1 2,1 0,0 0,0 1,0 1,0 1,0 2,1 0,0 1,0 1,0 0,0 1,0 1,0 0,0 1,0 1,0 0,0 0,0 0,0l195 36c2,0 5,1 7,1 18,0 34,-13 37,-32 0,-2 1,-5 1,-7 -7,12 -19,21 -33,21z"/>
   <g>
    <g>
     <circle class="fil6" transform="matrix(0.0163947 -0.390715 0.383604 0.0166986 879.396 1993.16)" r="127"/>
     <circle class="fil6" transform="matrix(0.0163947 -0.390715 0.383604 0.0166986 862.153 2159.64)" r="87"/>
     <path class="fil6" d="M927 2003c-19,97 -19,97 -32,163l-66 -7c1,-68 1,-68 2,-167l96 10z"/>
    </g>
    <g>
     <circle class="fil7" transform="matrix(0.0762908 -0.383285 0.376309 0.077705 907.565 2002.9)" r="124"/>
     <circle class="fil7" transform="matrix(0.0762908 -0.383285 0.376309 0.077705 865.777 2161.36)" r="85"/>
     <path class="fil7" d="M952 2020c-33,91 -33,91 -56,153l-63 -17c11,-65 11,-65 27,-161l92 25z"/>
    </g>
    <circle class="fil7" transform="matrix(0.0762908 -0.383285 0.376309 0.077705 915.183 2029.02)" r="113"/>
    <path class="fil7" d="M834 2152c17,-58 17,-58 39,-135l81 31c-34,73 -34,73 -59,128l-61 -24z"/>
    <path class="fil12" d="M860 2187l0 0c14,7 30,1 36,-13l42 -89c7,-14 1,-30 -13,-37l0 0c-13,-7 -30,-1 -36,13l-42 89c-7,14 -1,30 13,37z"/>
    <path class="fil15" d="M944 2065l-30 0c-8,0 -14,-6 -14,-14l0 -10c0,-8 6,-14 14,-14l30 0c8,0 14,6 14,14l0 10c0,8 -6,14 -14,14z"/>
    <path class="fil12" d="M951 2059l-30 0c-8,0 -14,-6 -14,-14l0 -10c0,-8 6,-14 14,-14l30 0c8,0 14,6 14,14l0 10c0,8 -6,14 -14,14z"/>
    <path class="fil6" d="M876 2069c-2,0 -5,-1 -6,-3l-25 -39c-2,-4 -1,-8 2,-11 3,-2 8,-1 10,2l25 39c2,4 1,8 -2,11 -1,1 -3,1 -4,1z"/>
    <path class="fil6" d="M856 2099c-2,0 -5,-1 -6,-3l-18 -27c-2,-4 -1,-8 2,-11 3,-2 8,-1 10,2l18 27c2,4 1,8 -2,11 -1,1 -3,1 -4,1z"/>
    <path class="fil15" d="M939 2090c-1,0 -1,0 -2,0l-33 -11c-3,-1 -5,-5 -4,-8 1,-3 5,-5 8,-4l33 11c3,1 5,5 4,8 -1,3 -3,5 -6,5z"/>
    <path class="fil15" d="M926 2118c-1,0 -1,0 -2,0l-33 -11c-3,-1 -5,-5 -4,-8 1,-3 5,-5 8,-4l33 11c3,1 5,5 4,8 -1,3 -3,5 -6,5z"/>
    <path class="fil15" d="M913 2145c-1,0 -1,0 -2,0l-33 -11c-3,-1 -5,-5 -4,-8 1,-3 5,-5 8,-4l33 11c3,1 5,5 4,8 -1,3 -3,5 -6,5z"/>
   </g>
   <g>
    <path class="fil8" d="M1097 1938c-5,0 -9,1 -14,1 -115,23 -115,23 -169,34 -14,3 -25,16 -25,31 0,15 11,28 25,31 54,12 54,12 169,37 5,1 9,2 14,2 37,0 67,-31 67,-68 0,-38 -30,-68 -67,-68z"/>
    <path class="fil10" d="M1152 1967c2,6 3,12 3,19 0,38 -30,68 -67,68 -5,0 -10,-1 -14,-2 -115,-25 -115,-25 -169,-37 -6,-1 -11,-4 -15,-8 1,14 11,26 25,29 54,12 54,12 169,37 5,1 9,2 14,2 37,0 67,-31 67,-68 0,-15 -5,-28 -12,-39z"/>
    <path class="fil6" d="M928 2005c0,-19 12,-34 28,-40 -12,2 -24,5 -42,8 -14,3 -25,16 -25,31 0,15 11,28 25,31 16,4 27,6 39,8 -15,-7 -25,-22 -25,-39z"/>
    <path class="fil11" d="M931 2039c1,0 2,0 3,1 1,0 2,1 4,1 1,0 1,0 2,0 1,0 2,1 4,1 1,0 2,0 2,1 1,0 1,0 2,0 2,0 4,1 5,1 -10,-5 -18,-13 -22,-24 -8,-2 -16,-4 -26,-6 -6,-1 -11,-4 -15,-8 0,1 0,2 0,3 0,0 0,0 0,0 0,1 0,2 0,2 0,0 0,0 0,0 0,1 0,1 1,2 0,0 0,0 0,0 0,1 0,1 1,2 0,0 0,0 0,1 0,1 1,1 1,2 0,0 0,0 0,1 0,1 1,1 1,2 0,0 0,0 0,1 0,1 1,1 1,1 0,0 0,0 1,1 0,0 1,1 1,1 0,0 0,0 1,1 0,0 1,1 1,1 0,0 1,0 1,1 0,0 1,1 1,1 0,0 1,0 1,1 0,0 1,1 1,1 0,0 1,0 1,1 0,0 1,1 1,1 0,0 1,0 1,1 0,0 1,0 1,1 0,0 1,0 1,1 0,0 1,0 1,0 1,0 1,0 2,1 0,0 1,0 1,0 1,0 2,0 3,1 1,0 2,0 3,1 5,1 9,2 13,3z"/>
   </g>
   <ellipse class="fil8" cx="732" cy="1873" rx="67" ry="68"/>
   <path class="fil16" d="M1594 1412c-1,0 -2,0 -3,0l-55 -17 -53 1c0,0 0,0 0,0 -6,0 -11,-5 -11,-11 0,-6 5,-11 11,-11l55 -1c1,0 2,0 3,0l56 17c6,2 9,8 7,14 -1,5 -6,8 -10,8z"/>
   <path class="fil14" d="M1624 1429c-1,0 -2,0 -3,0l-56 -13 -61 6c-7,1 -13,-4 -13,-11 -1,-7 4,-13 11,-14l63 -6c1,0 3,0 4,0l57 14c7,2 11,8 9,15 -1,6 -6,10 -12,10z"/>
   <path class="fil17" d="M1625 1458c-1,0 -3,0 -4,-1l-54 -18 -61 1c0,0 0,0 0,0 -7,0 -12,-5 -12,-12 0,-7 5,-12 12,-13l63 -1c1,0 3,0 4,1l56 19c6,2 10,9 8,16 -2,5 -6,9 -12,9z"/>
   <ellipse class="fil8" transform="matrix(0.061048 -0.3861 0.379074 0.0621796 1035.02 1231.97)" rx="203" ry="217"/>
   <ellipse class="fil18" transform="matrix(0.351122 -0.158226 0.155346 0.357631 1026.93 1253.98)" rx="172" ry="280"/>
   <path class="fil19" d="M1164 1952c-1,-10 -4,-19 -7,-27 -64,-146 -64,-147 -117,-268 -12,-29 -43,-48 -75,-44 -40,5 -69,41 -64,82 1,5 2,10 3,15 41,127 41,127 90,280 12,40 51,67 94,62 48,-6 83,-50 77,-99z"/>
   <g>
    <g>
     <g>
      <circle class="fil18" transform="matrix(0.0631982 -0.385748 0.378728 0.0643696 726.839 1873.92)" r="254"/>
     </g>
     <circle class="fil18" transform="matrix(0.0631982 -0.385748 0.378728 0.0643696 936.681 1642.33)" r="219"/>
     <g>
      <path class="fil18" d="M1022 1740c-34,54 -90,77 -126,50 -36,-26 -37,-92 -4,-146 34,-54 90,-77 126,-50 36,26 37,92 4,146z"/>
     </g>
     <g>
      <path class="fil18" d="M658 1804c118,-119 118,-119 219,-222l123 116c-92,111 -92,111 -200,240l-143 -134z"/>
     </g>
    </g>
   </g>
   <g>
    <polygon class="fil20" points="831,1752 911,1665 899,1653 822,1736 "/>
    <polygon class="fil20" points="816,1723 890,1645 877,1633 808,1707 "/>
   </g>
   <path class="fil19" d="M961 1711c-11,0 -22,-2 -33,-6 -54,-19 -82,-80 -63,-134 2,-7 -2,7 -7,21 -19,55 9,115 63,134 11,4 22,6 33,6 43,1 84,-26 99,-70 2,-5 4,-11 6,-16 -17,41 -56,66 -98,65z"/>
   <path class="fil16" d="M388 1016c-4,0 -8,-1 -11,-4l-67 -52c-3,-3 -6,-6 -7,-10l-14 -56c-3,-10 3,-20 13,-23 10,-3 20,4 23,14l13 50 62 48c8,6 10,18 3,27 -4,5 -9,7 -15,7z"/>
   <path class="fil20" d="M1106 1325c0,-7 0,-14 0,-21 -5,-77 -53,-138 -113,-151 -28,-7 -57,-2 -82,16 -44,28 -77,75 -73,140 3,51 30,106 62,134 -5,33 -16,75 -34,127 -19,55 9,115 63,134 11,4 22,6 33,6 43,1 84,-26 99,-70 32,-92 49,-169 51,-236 1,-28 -1,-54 -5,-80z"/>
   <path class="fil21" d="M863 1386c18,19 28,35 30,50 2,2 5,5 7,7 -5,33 -16,75 -34,127 -13,36 -5,74 17,102 10,-35 51,-184 56,-216 6,-46 -22,-81 -44,-103l-33 33z"/>
   <path class="fil18" d="M988 1279c-24,0 -48,-13 -65,-33 -16,-19 -23,-41 -21,-62 2,-15 9,-29 20,-38 9,-7 21,-11 34,-11 24,0 48,13 65,33 16,19 23,41 21,62 -2,15 -9,29 -20,38 -9,7 -21,11 -34,11z"/>
   <path class="fil8" d="M1015 1173c25,30 26,70 2,89 -24,19 -64,9 -89,-21 -25,-30 -26,-70 -2,-89 24,-19 64,-9 89,21z"/>
   <g>
    <path class="fil8" d="M965 1222c-17,1 -34,-10 -41,-28 -19,-50 -38,-83 -46,-94 -13,-20 -7,-47 13,-60 20,-13 46,-7 59,13 9,14 31,52 53,110 8,22 -2,47 -24,56 -5,2 -9,3 -14,3z"/>
    <ellipse class="fil22" transform="matrix(0.355384 -0.148058 0.145363 0.361971 867.944 1026.65)" rx="137" ry="237"/>
    <ellipse class="fil23" transform="matrix(0.00748702 -0.390989 0.383873 0.0076258 1021.09 982.499)" rx="134" ry="97"/>
    <path class="fil10" d="M950 1053c-13,-20 -39,-26 -59,-13 -11,7 -18,19 -19,32l0 1c8,53 58,90 110,82l0 0c6,-1 11,-2 16,-4 -20,-51 -41,-85 -49,-98z"/>
    <path class="fil8" d="M982 1145l0 0c-52,11 -103,-23 -114,-76l-10 -51c-11,-53 23,-105 75,-116l0 0c52,-11 103,23 114,76l10 51c11,53 -23,105 -75,116z"/>
    <g>
     <path class="fil24" d="M1047 1080c-1,4 -2,7 -5,10 -6,9 -17,17 -27,18 -11,1 -18,-4 -20,-12 -1,-3 -1,-6 0,-10 3,-14 18,-26 32,-28 14,-2 23,8 20,22z"/>
     <path class="fil25" d="M1041 1093c-2,-8 -13,-16 -27,-17 -5,-1 -9,0 -13,0 -2,3 -4,7 -5,10 -1,4 -1,7 0,10 2,8 9,13 20,12 10,-1 19,-7 25,-15z"/>
     <path class="fil26" d="M1005 1070l29 -4c4,0 7,-2 9,-5 -4,-3 -9,-5 -15,-4 -8,1 -17,6 -23,12z"/>
     <path class="fil26" d="M1042 1090c-6,9 -17,17 -27,18 -11,1 -18,-4 -20,-12l47 -6z"/>
    </g>
    <ellipse class="fil22" transform="matrix(0.00748702 -0.390989 0.383873 0.0076258 883.923 1010.33)" rx="146" ry="119"/>
    <circle class="fil8" transform="matrix(0.00748702 -0.390989 0.383873 0.0076258 887.749 1057.87)" r="74"/>
    <ellipse class="fil22" transform="matrix(0.00748702 -0.390989 0.383873 0.0076258 902.092 927.843)" rx="152" ry="167"/>
    <path class="fil27" d="M903 874c34,1 62,26 63,58 0,-1 0,-2 0,-3 1,-33 -27,-60 -63,-61 -35,-1 -64,25 -65,58 0,1 0,2 0,3 2,-32 31,-56 65,-55z"/>
    <path class="fil22" d="M893 979c0,0 -37,-30 -38,-62 74,-48 79,-89 50,-110 47,11 42,35 43,46 43,-17 44,-67 28,-83 77,24 62,80 52,101 40,-9 61,-44 61,-44 11,150 -138,174 -196,152z"/>
    <path class="fil28" d="M1088 828c-9,40 -108,146 -203,144 4,4 7,6 7,6 58,22 206,-2 196,-151z"/>
    <path class="fil28" d="M976 770c32,22 53,71 0,114 24,-1 42,-5 52,-13 10,-21 25,-77 -52,-101z"/>
    <path class="fil28" d="M860 869c12,-3 26,0 36,9 16,15 18,41 3,58 -2,3 -5,5 -8,7 8,-2 15,-6 21,-13 15,-17 13,-43 -3,-58 -14,-12 -34,-14 -48,-4z"/>
    <path class="fil28" d="M947 853c-4,5 -7,8 -21,15 25,-34 -9,-54 -23,-61 47,11 42,35 43,46z"/>
   </g>
   <path class="fil18" d="M874 1201c-24,27 -39,64 -36,109 2,31 12,63 27,89 0,0 1,0 1,0 32,0 58,-43 59,-98 1,-52 -21,-95 -51,-100z"/>
   <path class="fil8" d="M870 1206c-21,27 -34,61 -31,103 2,28 11,58 24,83 1,0 2,0 3,0 29,1 53,-41 54,-92 1,-51 -21,-93 -50,-94z"/>
   <ellipse class="fil8" transform="matrix(0.160184 -0.355402 0.348934 0.163153 846.908 1258.26)" rx="154" ry="188"/>
   <path class="fil8" d="M889 1269l-59 -28c-10,-19 -35,-40 -67,-55 -32,-15 -64,-20 -84,-16l-7 -3 -193 -193c-16,-16 -43,-16 -59,1 -16,17 -16,44 1,60l198 197c1,1 2,2 4,3 0,0 0,0 0,0 0,0 1,1 1,1 0,0 1,0 1,1 0,0 1,0 1,1 1,0 1,1 2,1 0,0 0,0 0,0 1,1 3,2 4,2l224 105c6,3 12,4 17,4 16,0 31,-9 38,-25 10,-21 0,-46 -20,-56z"/>
   <path class="fil10" d="M842 1310l-159 -72c-7,-3 -15,0 -18,7 -2,5 -1,10 1,14l122 57 42 19c7,3 15,0 18,-7 3,-7 0,-15 -7,-18z"/>
   <g>
    <ellipse class="fil29" cx="447" cy="843" rx="142" ry="145"/>
    <path class="fil30" d="M559 755c2,10 4,21 4,32 0,80 -64,145 -142,145 -46,0 -86,-22 -112,-56 14,64 71,113 139,113 78,0 142,-65 142,-145 0,-33 -11,-64 -30,-88z"/>
    <path class="fil31" d="M547 741c-2,-2 -4,-4 -6,-6 -6,6 -13,11 -20,15 -13,-19 -30,-36 -48,-49 -8,-1 -16,-2 -24,-2 24,13 45,31 62,55 -31,7 -67,-13 -97,-51 -3,1 -6,2 -9,3 8,11 17,20 26,28 22,20 46,30 67,30 6,0 12,-1 18,-2 4,6 7,12 10,18 2,4 3,7 5,11 -1,0 -3,0 -4,-1 -35,-4 -75,5 -112,25 -37,19 -67,47 -85,79 -4,6 -6,12 -9,19 2,3 3,6 5,9 2,-8 6,-16 10,-24 17,-30 46,-57 81,-75 36,-19 74,-27 107,-24 3,0 6,1 9,1 9,23 13,46 12,69 -22,0 -44,15 -62,42 -14,21 -26,48 -32,78 3,0 6,0 9,-1 6,-28 17,-53 30,-73 17,-24 36,-38 55,-38 -1,10 -2,21 -5,31 -7,27 -20,51 -38,69 9,-4 18,-9 26,-15 10,-15 18,-32 22,-51 3,-11 4,-21 5,-32 9,2 17,7 24,14 1,-3 2,-6 3,-9 -8,-7 -17,-12 -26,-14 0,-23 -3,-46 -11,-68 18,5 32,14 41,26 -1,-5 -1,-10 -2,-14 -11,-10 -25,-17 -42,-21 -2,-6 -5,-12 -8,-18 -3,-6 -6,-11 -9,-17 8,-4 15,-9 22,-16z"/>
   </g>
   <ellipse class="fil8" transform="matrix(0.0300249 -0.389855 0.38276 0.0305814 426.62 993.314)" rx="97" ry="217"/>
   <path class="fil8" d="M376 1013c-4,0 -7,-1 -10,-4l-45 -42c-3,-3 -5,-7 -5,-12l0 -52c0,-9 7,-16 16,-16 9,0 16,7 16,16l0 44 40 37c6,6 7,16 1,22 -3,3 -7,5 -12,5z"/>
   <ellipse class="fil8" transform="matrix(0.0891916 -0.380352 0.37343 0.0908448 1493.35 1412.62)" rx="118" ry="169"/>
   <path class="fil8" d="M1483 1505c-8,0 -15,-6 -16,-14 0,-4 -4,-13 -11,-18 -3,-2 -5,-6 -6,-9 0,0 0,-1 0,-2 -6,-29 -10,-36 -11,-37 -5,-7 -4,-17 3,-22 7,-5 17,-4 22,3 6,8 11,23 16,47 11,10 17,26 18,36 1,9 -6,16 -14,17 0,0 -1,0 -1,0z"/>
   <path class="fil8" d="M1608 1505c-3,0 -5,-1 -7,-3l-50 -39 -60 -14c-7,-1 -11,-8 -9,-15 1,-7 8,-11 15,-9l62 14c2,0 3,1 5,2l52 41c5,4 6,12 2,17 -2,3 -6,5 -10,5z"/>
   <path class="fil32" d="M806 1214c-6,-5 -13,-10 -20,-15 0,0 0,0 0,0 0,0 0,0 -1,0 -1,-1 -3,-2 -4,-3 0,0 -1,0 -1,-1 -1,-1 -3,-1 -4,-2 0,0 0,0 0,0 -4,-2 -9,-5 -13,-7 -32,-15 -64,-20 -84,-16l-7 -3 -113 -113c3,6 4,12 4,19 0,24 -19,44 -43,44 -10,0 -18,-3 -26,-9l124 124c1,1 2,2 4,3 0,0 0,0 0,0 0,0 1,1 1,1 0,0 1,0 1,1 0,0 1,0 1,1 1,0 1,1 2,1 0,0 0,0 0,0 1,1 3,2 4,2l119 56 0 0 15 7c20,0 40,-19 46,-45 4,-17 2,-33 -5,-45z"/>
   <path class="fil18" d="M795 1289l-112 -51c-7,-3 -15,0 -18,7 -2,5 -1,10 1,14l97 45c11,0 22,-6 31,-15z"/>
   <path class="fil20" d="M667 946c-2,-8 -5,-16 -9,-23 -4,-7 -9,-13 -14,-19 -6,-6 -12,-11 -18,-15 -7,-4 -14,-7 -21,-10 -15,-5 -30,-7 -46,-6l-6 0 -6 1c-2,0 -4,0 -6,1 -2,0 -4,0 -6,1l-6 1c-2,0 -4,1 -6,1 -4,1 -8,2 -11,3 -30,9 -59,23 -86,39 -14,8 -27,17 -40,26 -13,9 -26,19 -38,29 -50,41 -96,86 -140,134 -44,48 -86,97 -128,147 36,-55 75,-107 118,-157 43,-50 88,-97 139,-138 13,-10 26,-20 39,-30 13,-9 27,-18 42,-27 14,-8 29,-16 44,-22 15,-6 31,-12 47,-16 16,-4 33,-6 49,-6 17,0 33,3 49,10 15,6 30,16 40,29 5,6 10,14 13,21l1 1 1 1 1 3 1 3c0,1 1,2 1,3 1,4 2,8 3,12z"/>
   <path class="fil20" d="M102 2046l17 -5c6,-2 12,-3 18,-5 12,-3 23,-6 35,-9l35 -9 35 -9c12,-3 23,-6 35,-8l35 -8 35 -8 35 -8 26 -6 -19 19 -28 28 -28 27 -6 -14 55 -3 27 -1 27 -1c36,-2 73,-3 109,-5 18,-1 36,-1 55,-2l55 -2c37,-1 73,-2 110,-2 -36,4 -73,7 -109,10l-55 4c-18,1 -36,3 -55,4 -36,3 -73,5 -109,7l-27 2 -27 2 -55 3 -22 1 16 -15 28 -27 28 -27 7 13 -35 7 -35 7 -35 7c-12,2 -24,5 -36,7l-36 7 -36 6c-12,2 -24,4 -36,6 -6,1 -12,2 -18,3l-18 3z"/>
   <path class="fil20" d="M79 1151c4,-10 9,-20 15,-29 6,-9 12,-18 19,-27 7,-9 14,-17 21,-25 7,-8 15,-16 23,-24 8,-8 16,-15 24,-22 8,-7 16,-14 25,-21 17,-14 34,-27 52,-39 -16,14 -33,29 -49,43 -8,7 -16,15 -24,22 -8,7 -16,15 -24,23 -8,8 -15,15 -23,23 -8,8 -15,16 -22,24 -7,8 -14,17 -20,25 -7,9 -13,18 -18,27z"/>
   <g>
    <g>
     <g>
      <g>
       <path class="fil20" d="M1841 1272c-4,0 -8,-4 -8,-8 0,-2 0,-4 0,-6 0,-19 1,-38 2,-57 0,-7 1,-14 2,-21 1,-12 2,-24 4,-34 1,-10 3,-19 4,-28 1,-8 3,-17 5,-25 3,-14 6,-28 10,-41 1,-3 2,-7 3,-10 5,-17 11,-33 17,-49 2,-4 3,-8 5,-13 5,-12 10,-23 16,-34 8,-15 16,-30 26,-44 1,-1 2,-3 3,-4 8,-13 18,-25 27,-37 16,-20 33,-39 54,-59 0,0 1,-1 1,-1 3,-3 8,-3 11,0 3,3 3,8 0,11 0,0 0,0 -1,1 -20,20 -37,39 -52,58 -9,12 -18,24 -26,36 -1,1 -2,3 -3,4 -9,14 -17,28 -25,43 -6,11 -11,22 -16,33 -2,4 -3,8 -5,12 -6,15 -12,31 -16,48 -1,3 -2,7 -3,10 -4,13 -7,26 -10,40 -2,8 -3,17 -5,25 -2,9 -3,18 -4,27 -1,11 -3,22 -4,34 -1,7 -1,14 -2,20 -1,18 -2,37 -2,56 0,2 0,4 0,6 0,4 -4,8 -8,8z"/>
       <path class="fil20" d="M1646 1272c-4,0 -8,-4 -8,-8 0,-11 0,-21 0,-31 0,-8 -1,-17 -1,-24 -1,-11 -1,-21 -2,-31 0,0 0,0 0,0 -1,-10 -2,-20 -3,-29 -1,-8 -2,-16 -4,-24 -2,-13 -5,-26 -7,-39 -1,-4 -2,-8 -3,-12 0,0 0,0 0,0 -4,-17 -9,-33 -14,-49 -1,-2 -1,-4 -2,-6 -5,-14 -10,-28 -16,-41 -5,-12 -11,-23 -17,-34 -2,-4 -4,-7 -6,-10 -8,-14 -17,-28 -27,-42 -9,-13 -20,-26 -31,-39 0,0 0,0 0,0 0,0 0,0 0,0 -11,-12 -22,-24 -35,-38l-3 -3c0,0 0,0 -1,-1 -3,-3 -3,-8 0,-11 3,-3 8,-3 11,0 0,0 1,1 1,1l3 3c13,13 25,26 36,38 0,0 0,1 1,1 11,13 22,26 32,40 10,14 19,28 28,43 2,3 4,7 6,11 6,11 12,23 17,35 6,13 12,28 17,42 1,2 1,4 2,6 5,16 10,33 15,50 0,0 0,0 0,0 1,4 2,8 3,12 3,13 5,26 8,40 1,8 3,16 4,25 1,9 2,19 3,30 0,0 0,0 0,0 1,10 2,20 2,31 0,8 1,16 1,25 0,10 0,21 0,32 0,4 -4,8 -8,8zm-141 -419l0 0 0 0zm0 -1c0,0 0,0 0,0 0,0 0,0 0,0z"/>
      </g>
      <g>
       <g>
        <path class="fil20" d="M1962 870c-1,0 -2,0 -2,-1l-32 -17c0,0 0,0 0,0l-52 -29c0,0 0,0 0,0l-22 -12c-2,-1 -3,-4 -2,-7 1,-2 4,-3 7,-2l22 12c0,0 0,0 0,0l52 29c0,0 0,0 0,0l32 18c2,1 3,4 2,7 -1,2 -3,3 -4,3z"/>
        <path class="fil20" d="M1932 912c-1,0 -2,0 -2,-1l-182 -100c-2,-1 -3,-4 -2,-7 1,-2 4,-3 7,-2l182 100c2,1 3,4 2,7 -1,2 -3,3 -4,3z"/>
        <path class="fil20" d="M1907 955c-1,0 -2,0 -2,-1l-262 -143c-2,-1 -3,-4 -2,-7 1,-3 4,-3 7,-2l262 143c2,1 3,4 2,7 -1,2 -3,3 -4,3z"/>
        <path class="fil20" d="M1886 1001c-1,0 -2,0 -2,-1l-218 -119c0,0 0,0 0,0l-52 -29c0,0 0,0 0,0l-52 -29c0,0 0,0 0,0l-22 -12c-2,-1 -3,-4 -2,-7 1,-3 4,-3 7,-2l22 12c0,0 0,0 0,0l52 29c0,0 0,0 0,0l52 29c0,0 0,0 0,0l219 120c2,1 3,4 2,7 -1,2 -3,3 -4,3z"/>
        <path class="fil20" d="M1869 1049c-1,0 -2,0 -2,-1l-360 -197c-2,-1 -3,-4 -2,-7 1,-2 4,-3 7,-2l1 0 359 196c2,1 3,4 2,7 -1,2 -3,3 -4,3z"/>
        <path class="fil20" d="M1857 1100c-1,0 -2,0 -2,-1l-282 -154c-2,-1 -3,-4 -2,-7 1,-3 4,-3 7,-2l282 154c2,1 3,4 2,7 -1,2 -3,3 -4,3z"/>
        <path class="fil20" d="M1848 1152c-1,0 -2,0 -2,-1l-240 -131c-2,-1 -3,-4 -2,-7 1,-2 4,-3 7,-2l240 131c2,1 3,4 2,7 -1,2 -3,3 -4,3z"/>
        <path class="fil20" d="M1843 1207c-1,0 -2,0 -2,-1l-175 -96c0,0 0,0 0,0l-40 -22c-2,-1 -3,-4 -2,-7 1,-3 4,-3 7,-2l39 22c0,0 0,0 0,0l175 96c2,1 3,4 2,7 -1,2 -3,3 -4,3z"/>
        <path class="fil20" d="M1772 1226c-1,0 -2,0 -2,-1l-133 -73c-2,-1 -3,-4 -2,-7 1,-2 4,-3 7,-2l133 73c2,1 3,4 2,7 -1,2 -3,3 -4,3z"/>
        <path class="fil20" d="M1720 1254c-1,0 -2,0 -2,-1l-75 -41c-2,-1 -3,-4 -2,-7 1,-2 4,-3 7,-2l75 41c2,1 3,4 2,7 -1,2 -3,3 -4,3z"/>
       </g>
       <g>
        <path class="fil20" d="M1475 815c-2,0 -4,-1 -4,-3 -1,-3 0,-6 2,-7l5 -3c2,-1 6,0 7,2 1,3 0,6 -2,7l-5 3c-1,0 -2,1 -2,1z"/>
        <path class="fil20" d="M1510 853c-2,0 -4,-1 -4,-3 -1,-3 0,-6 2,-7l0 0 52 -29c0,0 0,0 0,0l22 -12c2,-1 6,0 7,2 1,2 0,6 -2,7l-22 12c0,0 0,0 0,0l-52 29c-1,0 -2,1 -2,1z"/>
        <path class="fil20" d="M1542 893c-2,0 -4,-1 -4,-3 -1,-2 0,-6 2,-7l73 -40c0,0 0,0 0,0l74 -41c2,-1 6,0 7,2 1,2 0,6 -2,7l-75 41c0,0 0,0 0,0l-73 40c-1,0 -2,1 -2,1z"/>
        <path class="fil20" d="M1569 935c-2,0 -4,-1 -4,-3 -1,-3 0,-6 2,-7l98 -54c0,0 0,0 0,0l127 -69c2,-1 6,0 7,2 1,3 0,6 -2,7l-127 69c0,0 0,0 0,0l-98 54c-1,0 -2,1 -2,1z"/>
        <path class="fil20" d="M1592 980c-2,0 -4,-1 -4,-3 -1,-3 0,-6 2,-7l285 -156c0,0 0,0 0,0l22 -12c2,-1 6,0 7,2 1,3 0,6 -2,7l-22 12c0,0 0,0 0,0l-285 156c-1,0 -2,1 -2,1z"/>
        <path class="fil20" d="M1610 1027c-2,0 -4,-1 -4,-3 -1,-3 0,-6 2,-7l319 -175c0,0 0,0 0,0l74 -41c2,-1 6,0 7,2 1,3 0,6 -2,7l-75 41c0,0 0,0 0,0l-319 175c-1,0 -2,1 -2,1z"/>
        <path class="fil20" d="M1625 1077c-3,0 -5,-2 -5,-5 0,-2 1,-4 3,-5l310 -170c2,-1 6,0 7,2 1,2 0,6 -2,7l-5 3 -305 167c-1,0 -2,1 -3,1z"/>
        <path class="fil20" d="M1635 1129c-2,0 -4,-1 -4,-3 -1,-2 0,-6 2,-7l32 -18c0,0 0,0 0,0l224 -122c2,-1 6,0 7,2 1,2 0,6 -2,7l-224 122c0,0 0,0 0,0l-32 17c-1,0 -2,1 -2,1z"/>
        <path class="fil20" d="M1642 1182c-3,0 -5,-2 -5,-5l0 0c0,-2 1,-4 3,-5l224 -123c2,-1 6,0 7,2 1,2 0,6 -2,7l-224 123c-1,0 -2,1 -3,1z"/>
        <path class="fil20" d="M1646 1238c-2,0 -4,-1 -4,-3 -1,-2 0,-6 2,-7l207 -113c2,-1 6,0 7,2 1,3 0,6 -2,7l-207 113c-1,0 -2,1 -2,1z"/>
        <path class="fil20" d="M1720 1254c-2,0 -4,-1 -4,-3 -1,-3 0,-6 2,-7l124 -68c2,-1 6,0 7,2 1,2 0,6 -2,7l-124 68c-1,0 -2,1 -2,1z"/>
       </g>
      </g>
      <path class="fil20" d="M2015 812l-543 0c-3,0 -5,-2 -5,-5 0,-3 2,-5 5,-5l543 0c3,0 5,2 5,5 0,3 -2,5 -5,5z"/>
      <path class="fil20" d="M1797 1238c-1,0 -2,0 -2,-1l-24 -13c-2,-1 -3,-4 -2,-7 1,-3 4,-3 7,-2l24 13c2,1 3,4 2,7 -1,2 -3,3 -4,3z"/>
     </g>
     <path class="fil7" d="M2025 830l-563 0c-15,0 -27,-13 -27,-28l0 0c0,-15 12,-28 27,-28l563 0c15,0 27,13 27,28l0 0c0,15 -12,28 -27,28z"/>
     <path class="fil33" d="M2025 830l-563 0c-15,0 -27,-13 -27,-28l0 0c0,-15 12,-28 27,-28l563 0c15,0 27,13 27,28l0 0c0,15 -12,28 -27,28z"/>
     <path class="fil7" d="M1922 830l-460 0c-15,0 -27,-13 -27,-28l0 0c0,-15 12,-28 27,-28l460 0c15,0 27,13 27,28l0 0c0,15 -12,28 -27,28z"/>
     <path class="fil34" d="M1608 830l-67 0c-15,0 -27,-13 -27,-28l0 0c0,-15 12,-28 27,-28l67 0c15,0 27,13 27,28l0 0c0,15 -12,28 -27,28z"/>
    </g>
    <path class="fil20" d="M1961 718l-436 0c-9,0 -16,-7 -16,-16l0 -343c0,-9 7,-16 16,-16l436 0c9,0 16,7 16,16l0 343c0,9 -7,16 -16,16zm-420 -32l404 0 0 -311 -404 0 0 311z"/>
   </g>
  </g>
 </g>
</svg>
